<?xml version="1.0" encoding="utf-8"?>
<!-- Generator: Adobe Illustrator 23.0.0, SVG Export Plug-In . SVG Version: 6.00 Build 0)  -->
<!DOCTYPE svg PUBLIC "-//W3C//DTD SVG 1.1//EN" "http://www.w3.org/Graphics/SVG/1.1/DTD/svg11.dtd" [
	<!ENTITY ns_extend "http://ns.adobe.com/Extensibility/1.0/">
	<!ENTITY ns_ai "http://ns.adobe.com/AdobeIllustrator/10.0/">
	<!ENTITY ns_graphs "http://ns.adobe.com/Graphs/1.0/">
	<!ENTITY ns_vars "http://ns.adobe.com/Variables/1.0/">
	<!ENTITY ns_imrep "http://ns.adobe.com/ImageReplacement/1.0/">
	<!ENTITY ns_sfw "http://ns.adobe.com/SaveForWeb/1.0/">
	<!ENTITY ns_custom "http://ns.adobe.com/GenericCustomNamespace/1.0/">
	<!ENTITY ns_adobe_xpath "http://ns.adobe.com/XPath/1.0/">
]>
<svg version="1.1" id="Layer_1" xmlns:x="&ns_extend;" xmlns:i="&ns_ai;" xmlns:graph="&ns_graphs;"
	 xmlns="http://www.w3.org/2000/svg" xmlns:xlink="http://www.w3.org/1999/xlink" x="0px" y="0px" viewBox="0 0 429.8 77"
	 style="enable-background:new 0 0 429.8 77;" xml:space="preserve">
<style type="text/css">
	.st0{fill:url(#SVGID_1_);}
	.st1{fill:url(#SVGID_2_);}
	.st2{fill:#BB342C;}
	.st3{fill:#FEFEFE;}
	.st4{fill:#FDFCFC;}
	.st5{fill:#FEFDFD;}
	.st6{fill:url(#SVGID_3_);}
	.st7{fill:url(#SVGID_4_);}
	.st8{fill:url(#SVGID_5_);}
	.st9{fill:url(#SVGID_6_);}
	.st10{fill:#FFFFFF;}
</style>
<metadata>
	<x:xmpmeta  xmlns:x="adobe:ns:meta/">
		<rdf:RDF  xmlns:rdf="http://www.w3.org/1999/02/22-rdf-syntax-ns#">
			
				<rdf:Description  rdf:about="" xmlns:dc="http://purl.org/dc/elements/1.1/" xmlns:stDim="http://ns.adobe.com/xap/1.0/sType/Dimensions#" xmlns:stMfs="http://ns.adobe.com/xap/1.0/sType/ManifestItem#" xmlns:stRef="http://ns.adobe.com/xap/1.0/sType/ResourceRef#" xmlns:xmp="http://ns.adobe.com/xap/1.0/" xmlns:xmpG="http://ns.adobe.com/xap/1.0/g/" xmlns:xmpGImg="http://ns.adobe.com/xap/1.0/g/img/" xmlns:xmpMM="http://ns.adobe.com/xap/1.0/mm/" xmlns:xmpTPg="http://ns.adobe.com/xap/1.0/t/pg/">
				<xmpMM:Manifest>
					<rdf:Seq>
						<rdf:li  rdf:parseType="Resource">
							<stMfs:linkForm>EmbedByReference</stMfs:linkForm>
							<stMfs:reference  rdf:parseType="Resource">
								<stRef:filePath>C:\Users\CHENN\Desktop\EurekAlert-logo.png</stRef:filePath>
								<stRef:documentID>0</stRef:documentID>
								<stRef:instanceID>0</stRef:instanceID>
							</stMfs:reference>
						</rdf:li>
					</rdf:Seq>
				</xmpMM:Manifest>
				<xmpMM:Ingredients>
					<rdf:Bag>
						<rdf:li  rdf:parseType="Resource">
							<stRef:filePath>C:\Users\CHENN\Desktop\EurekAlert-logo.png</stRef:filePath>
							<stRef:documentID>0</stRef:documentID>
							<stRef:instanceID>0</stRef:instanceID>
						</rdf:li>
					</rdf:Bag>
				</xmpMM:Ingredients>
				<xmpTPg:MaxPageSize  rdf:parseType="Resource">
					<stDim:w>429.800000</stDim:w>
					<stDim:h>77.004989</stDim:h>
					<stDim:unit>Points</stDim:unit>
				</xmpTPg:MaxPageSize>
				<xmpTPg:NPages>1</xmpTPg:NPages>
				<xmpTPg:HasVisibleTransparency>False</xmpTPg:HasVisibleTransparency>
				<xmpTPg:HasVisibleOverprint>False</xmpTPg:HasVisibleOverprint>
				<xmpTPg:PlateNames>
					<rdf:Seq>
						<rdf:li>Cyan</rdf:li>
						<rdf:li>Magenta</rdf:li>
						<rdf:li>Yellow</rdf:li>
					</rdf:Seq>
				</xmpTPg:PlateNames>
				<xmpTPg:SwatchGroups>
					<rdf:Seq>
						<rdf:li  rdf:parseType="Resource">
							<xmpG:groupName>Default Swatch Group</xmpG:groupName>
							<xmpG:groupType>0</xmpG:groupType>
						</rdf:li>
					</rdf:Seq>
				</xmpTPg:SwatchGroups>
				<dc:format>image/svg+xml</dc:format>
				<xmp:Thumbnails>
					<rdf:Alt>
						<rdf:li  rdf:parseType="Resource">
							<xmpGImg:width>256</xmpGImg:width>
							<xmpGImg:height>48</xmpGImg:height>
							<xmpGImg:format>JPEG</xmpGImg:format>
							<xmpGImg:image>/9j/4AAQSkZJRgABAgEASABIAAD/7QAsUGhvdG9zaG9wIDMuMAA4QklNA+0AAAAAABAASAAAAAEA
AQBIAAAAAQAB/+4ADkFkb2JlAGTAAAAAAf/bAIQABgQEBAUEBgUFBgkGBQYJCwgGBggLDAoKCwoK
DBAMDAwMDAwQDA4PEA8ODBMTFBQTExwbGxscHx8fHx8fHx8fHwEHBwcNDA0YEBAYGhURFRofHx8f
Hx8fHx8fHx8fHx8fHx8fHx8fHx8fHx8fHx8fHx8fHx8fHx8fHx8fHx8fHx8f/8AAEQgAMAEAAwER
AAIRAQMRAf/EAaIAAAAHAQEBAQEAAAAAAAAAAAQFAwIGAQAHCAkKCwEAAgIDAQEBAQEAAAAAAAAA
AQACAwQFBgcICQoLEAACAQMDAgQCBgcDBAIGAnMBAgMRBAAFIRIxQVEGE2EicYEUMpGhBxWxQiPB
UtHhMxZi8CRygvElQzRTkqKyY3PCNUQnk6OzNhdUZHTD0uIIJoMJChgZhJRFRqS0VtNVKBry4/PE
1OT0ZXWFlaW1xdXl9WZ2hpamtsbW5vY3R1dnd4eXp7fH1+f3OEhYaHiImKi4yNjo+Ck5SVlpeYmZ
qbnJ2en5KjpKWmp6ipqqusra6voRAAICAQIDBQUEBQYECAMDbQEAAhEDBCESMUEFURNhIgZxgZEy
obHwFMHR4SNCFVJicvEzJDRDghaSUyWiY7LCB3PSNeJEgxdUkwgJChgZJjZFGidkdFU38qOzwygp
0+PzhJSktMTU5PRldYWVpbXF1eX1RlZmdoaWprbG1ub2R1dnd4eXp7fH1+f3OEhYaHiImKi4yNjo
+DlJWWl5iZmpucnZ6fkqOkpaanqKmqq6ytrq+v/aAAwDAQACEQMRAD8AjAzmX2BeMKF4woXrigqg
woXjFiuGFC8YUL1xQV4xYrxhQsupvSt3fvSi/M4CdkwjZSPKnMdirsVdirsVdirsVdirsVdiqL1C
GKL6t6a8ecCO/uxrU5KQascibvvQmRbXYq7FXYq7FXYqnWmpxtFP8xJ/hlseTiZT6kVkmt2KscGU
OcvGFD0jRvInkGfRLG91PzOlld3MYklteURZCTShWvIfTmbDBjMQTKi8/qO0tVHLKMMXFEHnuyLT
fyW8oalGZNO8xNeIv2mgMMlK+PEmn05dHRQlylbr83tDqMZqeLh99hFTfkJo8UMkg1S4JRSwHBOw
rkjoB3tUfafISBwD5vLvKWhprvmGz0l5jAt0zKZQvIrxRm6VH8uYGKHHIB6bXanwMUslXwvVI/yD
0wA+pq0zHtxiRf1lszxoB3vLn2nn0gPm8286eX7by/5judJt5muEtxGTI4Aarxq9Ntv2sw82MQlT
0fZ+qOfCMhFXf30ky5U5hXjFivGFCN8v6CnmTzPp+gvObZLr1WaZVDlfTieQfCSOvCnXJY8fHMRa
NXqjp8MstXw19pAW/mN5Li8o63BpsV014s1styZGQIQWkdONAW/33jqMPhyq72T2T2gdXiMyOGpV
9g/Wl3k7y6/mPzHZ6OshhFyzc5gvLgqIXY0qOy5Xhx8chFv1+rGnwyyVdM487/kvF5c8t3OsW+pP
dm2MfOFognwu4StQzdCwzLz6LgjxA26Xs72gOozDGY8N31+PchPLf5UW2seR5PMrai8MiRXEn1YR
Bgfq/Kg5ch9rh4ZHHpBLHxW3avts4tSMPDe8d773nOYT0DsVTDQNJbWNbstLWUQtezJCJSOQXmaV
pUVyeOHFIDvaNTn8LHKdXwi2Q/mH+XU3k39H+pfLe/X/AFqcYzHx9Hh4s1a+pl2o0/h1vduv7K7W
Gr4qjw8Ndb53+pN/Nn5SQaF5PXzBHqTXD8YGaBoggpMQNmDN0LZZl0nBDitxdF24c+o8Exrnvfc8
3zCehR2q/wDHn/zDR/xyUujTh6/1igci3OxV2KuxV2KuxVP7VSttGp2IUVGXDk4UzuVXCxdirHBl
DnLxhQ9q/Kz8qtHu9Hh1zXI/rbXYLWtoSRGkYJAZ+JHJmp06Ae/TZ6XSxMeKTx/bXbeSGQ4sR4eH
mU5vLDyu2oXi6LoLQfomQQ3GrWVxFYPHOQD6cXJkWRhyoQ9FrtlhjCzwx5dRs4mPLn4I+JkvxBYj
KJnY7z3fDdOtJ8zzGFtP1SX1HlEkVnflPRMkkakvbzxn+6uFG9PsuN1y2GXofx+1ws+iF8eMcqJj
zofzonrH7R1eM/lZ/wAp7pH/ABkk/wCTL5rdL/eB7Dtr/FZ+79Ie1edvKGsa/LaPp+syaULdXEix
8/3hcrQng6dKZs8+GU6o08b2dr8eASE4Cd+79SXeV/J2nRaZqkOsQ2+sahbXMiNqFzCskrAQRsvx
Sc2+GtBvkMWEUeLcuRrdfM5IHGTjgYj0g0OZ7kp8laDodx+V0t7cadazXggvCLmSGNpaoX4nmQW2
ptvleHHE4roXu5faOpyx1wiJSEbjtZroyzWdG8gaRbpqWo6dZWkFu44yLbruzAqAUjUl+taUPj2z
InDHEWQA6nT6jV5SYQlORP8AS/Wdkvj0jQPL2iah5ih05dTmvJWu0CxjkYrmb90kaspKKqSCopkO
CMImVXbkHPl1GWOEy4BEcPPrEbk9+4XXPlfSD5q8s+ZbG1WzuJHljuI1QR80mspnUuoH21Ip9PsM
TijxxmBX9hRHWZPAy4ZniAqvhOI+SM1PydpN/wCbJNf1iCC5s7fTo7aGK5VHjVlllklkZXBHwqVo
fc5OWEGfFLlTTh1+SGAYsZIkZk7c+QADB/yzl03XfzI1fWdMsoLLStPtvq9lFbxJCP3j0WRggUcn
VHPj27ZiaYieUyAoB3fbAng0cMc5GU5Ss2b5dPhszW6nXzT5Z8y6elGeKW805QKbSRL8FaeDEZlE
+JCQ94dNCP5bPin3iMvgebH/AMuEaT8mpUUVZ4L9VHuTIMp039x83P7WNdog+cP0JhLo3ljyTo+m
WsWhrqT3U0dnczrEskh5j95NIzKx41H2enyyZhDFEDhtojqM+syTkcnBwgyAuh5AfrVF/LzytB51
N0NLtXtL2xkL2jwo8KTQyxDmiMCqllkpt4Yfy8BkuhRDA9q55abh45cUZjezdEHa/gvhuvyx0DzO
uj29va22u3ciUjityWV3A9NeapxjBFCACPHvXEHFCfDtxFEoa3Pg8QmRxRHWXz67pV+e+o6VB5SF
lcU/SF44NgChY0ikjMtHpRfhYd98r18gIUeZcr2axZDn4h9Efq+INKX5n3DN+UFq9APXjseQ+YV9
vuwao/uR8GfY8P8AXCXkZvn3NQ92jtV/48/+YaP+OSl0acPX+sXpX5DSWsJ8wXFwiukMMDDkAd6y
UAr4nbM7QEDiJed9pRKXhxj1J/QnWsvFoHnbQ/NBiRdN1nlYansOFagLI1enY/JPfLJ+icZ9DsXE
wA59NkwX68fqj+r8d7B/zR06W8/NS+0+0QercyWkMKAUHKS3iA6e5zF1UbykDydx2NlEdDGcuQEj
/spMf83aBFomsta2831mxljjubG6/wB+wTKGVtvpH0ZTlx8MqHJz9DqTmx8RFSBII7iER5t8pPoE
WmSCX1lvYCZzt+6u4m4zwbd4yVyWXFwV5/ew0Wu8cyFVwnbzifpl8W9S8ovZ+UdP10S85bmQrd2/
++UkBNsx/wCMixu3ypjLFUBL8eS4tdx55Yq2A2Pf/O+Vj7WQ6roWm6bothMRcyT3tpFcQXgKfVWk
YjnCAFLVjUmp5V5dsulARiPMODg1M8mSQ9IEZEEfxeR+Pu5dWP5U5zsVY4Moc5eMKH1P+Wv/ACgm
i/8AMMv6zm+0392HzLtj/Gsn9Zh91M3lfzhqdhfy/VNN124Go6XqUi8oEujUSxzDb4H5FG32FDtW
oxifDmQeUtwXb44/mdPCcBxTxx4ZR68PQjzHMeac+Y9Gkk8p+YtS1SS3SW4tknhFo7NCstohMMqO
wQ85DxXbsAN8tyQ9EifxTh6TUAZ8UMYlQkQeLnUuY9weTflZ/wAp7pH/ABkk/wCTL5r9L/eB6rtr
/FZ+79Iex+f/AC15x1mayby9qv6OSFZBcL9Yng5livH+5Vq0oeubLUY5yrhNPIdl6zT4RLxocd1W
wP3ovyJomraZo13Y6zci9vmuXae4WR5eQeKOlXkCsTxyWCBjEiW5tq7T1GPJkjPGOGPDsKA6nuQ+
j6DdaD+W0+mXZQ3MNpeGUxklSX9RxQkD9lhkYYzDFR7i2Z9THPrROP0mUf0JZ+eBI8p2oBpW/jB/
5EynIa76B73J9nP78/1D98U2hv8AWX/Le0vNBRZtUWytzDHQEFkCCVQCdzQMB75YJS8IGPOnElix
jWSjl2hxyv7a/QoJF5stNY8u/pjV4Lpbq5kWSzitRCVYWNw5PqCWTkFK0+zkamJR4j9nkWZlp5Y8
vhwMeGI34r/jj0oMhl1TTLjV5vLsw5XLWYunhYfA8EjtC3zoV3+Yy8yBPD5OBHDOOMZhy4q+Iosc
/LTyU3lWPWoXHwzXp+rSHq1qiAxEnx+NgffKNNh8O/e7DtjtD8ycZHSG/wDW6/cmPk3W/JWpfpD/
AAxKjn1vXvwiSx1lmr8Z9RVqW4dRk8M8cr4HH7Q0+px8PjjpUeXIdNkJoVkNE8mavb8aR2kupNGv
/FfqSOn/AAhGRhHhgR3W3anJ42pgf5wx/OgjvNlz5naz07/DBjL3V1ElzcuolWO2dW5S8SVqBsdj
k8pnQ4O9o0MMAlLx79MTQ5XLuUdLh1228zQwarqkOos1lPJGsVsLYxj1YBU/vJeXLt06YIiQnub2
7vczzSxSwE44GHrj/FxXtLyDyvzF/wCtAxf8xtj/AMmIc1+T/GPiHp9J/wAZR/qT++TIP+chNHv7
nS9L1OFA1pp7TLdNyAK/WDEsdAdzUp2y7tCBIB6BwPZbPGM5wP1SqvhdpT58i83f8qs0pL5LBdMt
0sykkMsz3DgQ8E5K8aoCeVWo2V5xPwhdVs5fZp0/56fBx8Z4uYFc9+tvIM1z1aO1X/jz/wCYaP8A
jkpdGnD1/rFMPLfmd9Gtb2BQ3+mPAXK03WEueJr4swP0ZPHl4QfNo1WkGWUSf4b+2ma+cPzK8n65
5K/QUNtfC8i9OS3nlihVPWQ/Ex4ysRyDN0HfMrNqYSx8O9um0HZGow6nxSYcJuxZ5fL3MZs/NdtL
rN55hv5HXV1slhsAEEitcrarbCZ2JAFOPIfCfiPtlAyjiMjzr9FOynoiMccUP7viuXT08XFQ+73I
uy8z+X9QttEk8xPL9d0W4faGBGSe1qJY424tHx4y1Gw+yclHLEgcXOP3NWTR5YHIMNcOQdTylyJ6
9PtUE82WetaPeab5muJFdryO9sruCBGZWYstwCoMf21II36jfB4olEiXff62Z0UsWSM8IH0mJBJ/
ze/l9yIfztp95d63p16zL5dv4PR09Y4kMkBtyv1NiBxLemq8SOXQnD4wJIP0n8BgOz5wjjnH+9ib
lvsb+v580WutadB5ZudMtLqa6t70QPFbyxhVt5UIaRwxY7mhX4RuDvkuMCNDq1nTzlmE5ARMb3B5
joP0sfypznYqxwZQ5y8YUMs0z8z/ADzplhBYWWpelaW6hIY/Qt24qO1WjZj9JzIjqckRQOzq83Y+
myTM5RuR85frW6x+Yfm/WrFrHVL1bq1YhijW9uCGHQqyxhlPuDgnqJyFE/cnT9lafDLihHhl/Wl+
tJl1C/FqbQXMv1Qmpt+bemT1rwrxyviNU5nhR4uKhxd/VW0nVL/Sr+HULCX0buAkxS8VahIKn4XD
Kdj3GGEjE2ObHPhjlgYTFxLKB+bf5g/9XX/p3tv+qWX/AJvJ3/c6z+QtJ/M/2Uv1tWn5ped7e7mu
vr4kkuAolDxRcSUFFIVVUAgeHXviNVMG7WfYumlER4dh5lbJ+Zfnea2ntpdTZ4LkOsytFCaiQEMA
xTkBQ7UO3bE6nJVWyHZGmEhIQ3HmenxQmsecPMmtWqWuqXzXNujiVY2VFAcAqD8KqejHIzzSkKJb
cGgw4ZcUI0eSrpP5heaPLlg0OnXQ+r1qtvKqyIGY7la7r9BxhqJwGxYZ+ysGolcxv3jZKdQ/MXzh
fa1b6zNqDLe2YcWhRUCRCRSj8EoV+JTQkiuVy1EzLivcOTi7K08MZxiPplz8681KTz55uk1mLWn1
JzqkMRt47njGCIiWPDiF4kVc9RgOefFxXuzHZunGM4xEcBN1vzRz/mt+YLoyNrEhVgQw9OHodv5M
n+ayd7SOxdIDfAPt/Wk+g+adf8vyTSaPeNaPcALMVCtyCkkVDhulcrx5ZQ+k05Wp0eLOAMkeKk3l
/NXz9Laz2smql4LlWSdTDbksrrxYcvT5fZ98sOqyVVuKOxdKJCQhuOW8v1qmi/mx540iwjsLa+D2
sK8IEmjSQoo2AViOVF7Amgww1eSIoFjqOxNNllxyj6jzo0gU/MLzkmrzawupyDUbiMQyTcUP7sHk
EVSvFVrvRRkPzE+LivdvPZenOMY+AcAN1vzSy/17V7/VzrF1ctJqZZJPrQojhogFRhxCgFQg6ZCW
Qk8RO7kYtNjhj8OI9Hd7+ab61+ZHnPW9LbTNTv8A17NypkT0YVLFCGWrIitsR2OWT1M5CidnE0/Z
Onwz44RqXvP61DUvPfmvU9Gi0W+vvW02ERrHB6UK0EQonxqiuaDxORlnnKPCTs2YezcGPIckY1M3
vZ68+tJBlTnI7Vf+PP8A5ho/45KXRpw9f6xQORbnYq7FXYq7FXYqnenPytE/yaj7jlseTiZR6kTk
mt2KpiPyb/Mj/q0f9PNr/wBVcn+Ty933OL/L+j/n/wCxl+pePyd/Mf8A6tH/AE8Wv/VXH8nl7vuR
/L+j/n/7GX6lw/J78xv+rR/08Wv/AFVw/k8vd9y/y9o/5/8AsZfqXD8n/wAxf+rT/wBPFr/1Vx/J
5e77kfy9o/5/+xl+pePyh/MT/q0/9PFt/wBVcfymTu+5H8u6T+f/ALGX6lw/KL8w/wDq0/8ATxbf
9VcP5TJ3fcj+XdJ/P/2Mv1Lh+Un5hf8AVq/6eLb/AKq4/lMnd9yP5d0n8/8A2Mv1Lh+Uv5g/9Wr/
AKeLb/qph/KZO77kfy5pP5/2S/UuH5TfmB/1av8Ap4tv+qmP5TJ3fcj+XNJ/P+yX6l4/Kjz/AP8A
Vr/5L23/AFUx/K5O77kfy3pP5/2S/Uh778pPzDliVI9JrvU/6RbDt7y4JaTJ3fczx9uaQHef+xl+
pA/8qa/Mj/qz/wDTza/9Vch+Ty933N38v6P+f/sZfqd/ypr8yP8Aqz/9PNr/ANVcfyeXu+5f5f0f
8/8A2Mv1O/5U1+ZH/Vn/AOnm1/6q4/k8vd9y/wAv6P8An/7GX6nf8qa/Mj/qz/8ATza/9VcfyeXu
+5f5f0f8/wD2Mv1O/wCVNfmR/wBWf/p5tf8Aqrj+Ty933L/L+j/n/wCxl+p3/KmvzI/6s/8A082v
/VXH8nl7vuX+X9H/AD/9jL9Tv+VNfmR/1Z/+nm1/6q4/k8vd9y/y/o/5/wDsZfqd/wAqa/Mj/qz/
APTza/8AVXH8nl7vuX+X9H/P/wBjL9Tv+VNfmR/1Z/8Ap5tf+quP5PL3fcv8v6P+f/sZfqd/ypr8
yP8Aqz/9PNr/ANVcfyeXu+5f5f0f8/8A2Mv1O/5U1+ZH/Vn/AOnm1/6q4/k8vd9y/wAv6P8An/7G
X6le6/KT8yZ/Rro3H0o1i/3ptTXj3/vckdJlPT7Qwh25oxfr5n+bL9Sh/wAqa/Mj/qz/APTza/8A
VXI/k8vd9zP+X9H/AD/9jL9Tv+VNfmR/1Z/+nm1/6q4/k8vd9y/y/o/5/wDsZfqd/wAqa/Mj/qz/
APTza/8AVXH8nl7vuX+X9H/P/wBjL9Tv+VNfmR/1Z/8Ap5tf+quP5PL3fcv8v6P+f/sZfqd/ypr8
yP8Aqz/9PNr/ANVcfyeXu+5f5f0f8/8A2Mv1O/5U1+ZH/Vn/AOnm1/6q4/k8vd9y/wAv6P8An/7G
X6kw078pvzChjdJdK471X/SLY9vaXLI6TIOn3NGXtzSE7T/2Mv1Iv/lVnnz/AKtn/Je3/wCqmS/K
5O77mv8AlrS/z/sl+p3/ACqzz5/1bP8Akvb/APVTH8rk7vuX+WtL/P8Asl+p/9k=
								</xmpGImg:image>
						</rdf:li>
					</rdf:Alt>
				</xmp:Thumbnails>
			</rdf:Description>
		</rdf:RDF>
	</x:xmpmeta>
	<sfw  xmlns="&ns_sfw;">
		<slices></slices>
		<sliceSourceBounds  bottomLeftOrigin="true" height="77.3" width="430" x="91.5" y="357.5"></sliceSourceBounds>
	</sfw>
</metadata>
<linearGradient id="SVGID_1_" gradientUnits="userSpaceOnUse" x1="162.5" y1="38.505" x2="0" y2="38.505">
	<stop  offset="0" style="stop-color:#C5544E"/>
	<stop  offset="1" style="stop-color:#BB342C"/>
</linearGradient>
<path class="st0" d="M162.5,0c0,0-6.9,18.2-9.9,28.6C147.4,46.3,142.5,77,142.5,77H0V0H162.5z"/>
<linearGradient id="SVGID_2_" gradientUnits="userSpaceOnUse" x1="471.1875" y1="38.5025" x2="471.693" y2="38.5025">
	<stop  offset="0" style="stop-color:#C5544E"/>
	<stop  offset="0.8587" style="stop-color:#C5544E"/>
	<stop  offset="1" style="stop-color:#C5544E"/>
</linearGradient>
<path class="st1" d="M394.5,0c11.8,0,23.5,0,35.3,0c0,0,0,51.3,0,77c-11.2,0-22.5,0-33.7,0c-1.9-6.1-3.2-11.6-4-16.2
	c-1.6-8.6-2-15.2-2.1-17.3c-0.1-2.2-0.4-7.9,0.1-15.2c0.5-7.7,1.6-13.5,2.4-18.3C393.2,5.9,394,2.5,394.5,0z"/>
<path class="st2" d="M161.9,0h232.7c-0.6,3.1-1.4,7.2-2.2,12.2c-0.7,4.3-1.3,8.7-1.8,14.4c-0.7,9.4-0.3,16.7-0.1,19.8
	c0.1,1.9,0.6,8.3,2.2,16.5c1,5.5,2.3,10.3,3.4,14.2c-84.8,0-169.5,0-254.3,0c0,0,1.6-9.6,2.2-13c0.9-4.9,1.6-8.5,2.9-14.6
	c1-4.7,1.4-7,2-9.3c1.2-5.2,2.3-9,3.2-12.1c1.2-4.2,2.4-8.3,4.2-13.5C157.6,10.6,159.4,5.7,161.9,0z"/>
<path class="st2" d="M298.6,72.9c0.1,0,0.3,0,0.4,0c0-23.3,0-46.5,0-69.8c-0.1,0-0.3,0-0.4,0C298.6,26.4,298.6,49.6,298.6,72.9z"/>
<path class="st3" d="M172.7,40.1c2,4.1,3.9,8.1,6,12.6c2.5-11.4,4.9-22.2,7.3-33.1c3.6,0,7.1,0,10.8,0c2.7,12.2,5.3,24.3,8,36.7
	c-3,0-5.9,0-9.1,0c-0.3-1.9-0.6-3.9-1-6.1c-2.2-0.3-4.4-0.2-6.8-0.1c-0.3,2.1-0.6,4.1-1,6.3c-5.2,0-10.3,0-15.5,0
	c-1.3-2.9-2.7-5.9-4.1-9.2c-2.6,2.8-0.9,6.1-1.7,9.1c-2.5,0-5.1,0-7.9,0c0-12.1,0-24.3,0-36.6c2.7,0,5.3,0,8,0c0,5.9,0,11.7,0,17.5
	c0.2,0.1,0.4,0.1,0.5,0.2c1.4-2.9,2.8-5.8,4.3-8.8c2.8,0,5.6,0,8.8,0C177.2,32.5,175,36.2,172.7,40.1z M190.1,35.2
	c-0.4,2.5-0.8,5-1.1,7.5c0.7,0.1,1.4,0.1,2.3,0.1c0.9,0,1.7,0,2.5-0.1c-0.4-2.2-0.7-4.5-1.1-6.7c-0.4-2.7-0.9-5.3-1.4-7.9
	C190.9,30.4,190.5,32.7,190.1,35.2z"/>
<path class="st3" d="M253.3,20.5c3,0,5.5,0,8.3,0c0,2.4,0,4.7,0,7.1c1.2,0.1,2.2,0.2,3.2,0.3c0,2.7,0,5.4,0,8.1
	c-1,0.1-1.9,0.2-3,0.3c0,4.4,0,8.9,0,13c0.9,1.2,2.1,0.8,3,1.3c0,1.9,0,3.8,0,5.8c-2.3,0.4-4.5,0.6-6.7,0.3
	c-3.3-0.5-4.6-1.8-4.7-5.3c-0.1-4.9,0-9.8,0-14.8c-2-0.6-3.9-0.5-5.8-0.1c-2.2,0.5-2.8,2.2-2.8,4.2c-0.1,4.3,0,8.7-0.1,13
	c0,0.9,0,1.8,0,2.8c-2.8,0-5.4,0-8.2,0c0-9.2,0-18.4,0-27.7c2.5,0,5.1,0,7.9,0c0,1.1,0,2.1,0,3.4c2.4-3.5,2.4-3.5,8.8-4.6
	C253.3,25.2,253.3,22.9,253.3,20.5z"/>
<path class="st3" d="M222.9,44.1c0.1,2.6-0.7,5,0.8,7c0.9,0.6,1.6,0.5,2.3,0.3c1.6-1.1,1.2-2.9,1.6-4.5c2.3,0,4.6,0,6.9,0
	c1,4.9-1.9,9.2-6.8,10.1c-2,0.4-4,0.3-6-0.1c-3.4-0.6-5.5-2.6-6.4-5.9c-1.5-5.6-1.5-11.2,0-16.8c1.3-4.7,4.6-6.7,10.2-6.5
	c5.1,0.1,7.7,2.2,8.9,7.1c0.7,2.9,0.8,5.9,0.5,9.2C231,44.1,227,44.1,222.9,44.1z M227.5,39.3c-0.1-2.2,0.6-4.4-1.4-5.8
	c-0.7-0.5-1.7-0.5-2.3,0.1c-1.5,1.6-1.4,3.6-1.1,5.7C224.3,39.3,225.8,39.3,227.5,39.3z"/>
<path class="st3" d="M145.5,57.5c-7.6-0.9-9.1-4.8-9.5-11.5c-0.2-2.5-0.1-5-0.1-7.4c0-0.3,0-0.7,0-1.1c0-0.2,0-0.5,0.1-0.7
	c0-0.1,0.1-0.3,0.2-0.5c0.5-1.3,2.1-6,6.1-7.9c4.7-2.3,9.7,0.4,10.2,0.7c2.1,2,2.9,4,3.3,5.1c0.6,1.8,0.7,3.4,0.8,6.1
	c0,1.2,0,2.5,0,3.7c-4,0-8,0-12.1,0c-0.3,2.1-0.3,3.9,0.1,5.6c0.3,1.1,0.7,2.1,2.1,1.9c0.1,0,0.4,0,0.6-0.1c0.2-0.1,0.3-0.2,0.4-0.3
	c0.1-0.1,0.3-0.2,0.4-0.4c0.2-0.3,0.3-0.5,0.5-0.8c0.1-0.4,0.3-0.9,0.4-1.3c0.1-0.5,0.3-1.1,0.4-1.6c2.4,0,4.6,0,6.9,0
	c0,0.6,0,1.2,0,1.8c0,0.7-0.3,3.7-2.7,6.1C150.2,58.1,146,57.6,145.5,57.5z M144.1,39.3c1.8,0.1,3.2,0.3,4.9-0.2
	c-0.1-2,0.5-4-1.3-5.5c-0.7-0.6-1.7-0.6-2.3,0C143.6,35.1,144,37.1,144.1,39.3z"/>
<path class="st3" d="M213.3,56.4c-2.6,0-5.2,0-7.9,0c0-12.2,0-24.4,0-36.7c2.6,0,5.1,0,7.9,0C213.3,31.9,213.3,44,213.3,56.4z"/>
<path class="st3" d="M276.9,45.8c-2.1,0-4,0-6.1,0c-0.9-8.6-1.1-17.2-0.9-26.1c2.6,0,5.1,0,7.9,0C278.2,28.4,277.8,37.1,276.9,45.8z
	"/>
<path class="st4" d="M333.1,48.3c-5.7,0-11.3,0-17,0V27.1c2.9,0,5.7,0,8.6,0c0.2,0.3,0.5,0.7,0.8,1.1c0.3,0.5,0.5,0.8,0.7,1.2
	c0.3,0.7,0.6,1.2,0.8,1.7c0.1,0.3,0.3,0.6,0.3,0.6c0.1,0.3,0.2,0.5,0.3,0.6c0.1,0.1,0.1,0.2,0.2,0.4c0.1,0.2,3.4,9.4,3.7,10.4
	C331.8,44.3,332.4,46.1,333.1,48.3z"/>
<path class="st5" d="M338.9,46.8c-2.9-6.6-5-13.3-8.4-19.7c2.9,0,8.4,0,8.4,0S338.9,40.3,338.9,46.8z"/>
<path class="st3" d="M298.6,72.9c0-23.3,0-46.5,0-69.8c0.1,0,0.3,0,0.4,0c0,23.3,0,46.5,0,69.8C298.9,72.9,298.8,72.9,298.6,72.9z"
	/>
<path class="st5" d="M277.8,48.7c0,2.6,0,5.1,0,7.7c-2.6,0.3-5.1,0.2-7.7,0c0-2.6,0-5.1,0-7.8C272.6,48.7,275.1,48.7,277.8,48.7z"/>
<linearGradient id="SVGID_3_" gradientUnits="userSpaceOnUse" x1="316.8934" y1="48.5368" x2="324.4955" y2="27.6504">
	<stop  offset="0" style="stop-color:#BB342C"/>
	<stop  offset="6.153464e-03" style="stop-color:#BB352D"/>
	<stop  offset="0.3388" style="stop-color:#CC6862"/>
	<stop  offset="0.6272" style="stop-color:#D98D89"/>
	<stop  offset="0.8571" style="stop-color:#E0A4A0"/>
	<stop  offset="1" style="stop-color:#E3ACA9"/>
</linearGradient>
<path class="st6" d="M316.3,48.3c0,0,1.7-4.2,2.5-6.3c2.5-6.3,2.5-6.3,2.5-6.3c2.3-5.9,3.2-8.1,3.2-8.1s-1,3-3.4,10.1
	c-0.2,0.7-0.5,1.4-0.7,2.2c-0.7,2.2-1.4,4.3-2.2,6.5c0,0-0.6,1.9-0.6,1.9H316.3z"/>
<path class="st3" d="M62,40.1c0.8,1.3,1.5,2.6,2.3,3.9c0.2,0.6,0.4,1.1,0.5,1.7c0.1,0.8,0.2,1.6,0.3,2.4c0,0.6,0,1.5-0.2,2.6
	c-0.2,1.3-0.4,2.3-1.2,3c-0.6,0.5-1.3,0.8-2.4,0.8c-6.6-0.5-13.2-5.7-15.1-12c-0.6-1.9-1.1-4,0.8-5.5c1.8-1.5,3.8-0.8,5.6,0
	c2.2,1,3.8,2.7,4.9,4.8c0.6,1.2,1.1,2.2,0.6,3.2c-0.3,0.6-0.8,1-1.1,1.2c-0.6,0-2.3,0-4-1.3c-2-1.5-2.4-3.6-2.5-4.1
	c0.1-0.3,0.2-0.6,0.4-0.8c0.8-0.4,2.4,1.4,3.1,1c0.1-0.1,0.3-0.3,0.3-0.8c-0.2-0.3-0.5-0.8-1.2-1.3c-0.7-0.4-1.3-0.5-1.7-0.6
	c-0.3,0-1.2,0.1-1.9,0.8c-0.5,0.5-0.7,1.2-0.7,1.6c-0.3,1.5,0.4,2.8,0.7,3.5c1.2,2.3,3.2,3.2,3.8,3.5c1.7,0.9,3.4,1.1,5.1-0.3
	c1.8-1.5,2.3-3.3,1.7-5.3c-1.2-4.2-6.5-8.4-10.9-8.8c-4.2-0.3-7.1,2.3-7.4,6.6c-0.4,5.6,2.1,9.9,5.9,13.7c0.8,0.8,1.8,1.5,3,2.6
	c-7.4,0-14.4,0-21.4,0c0-5.5,0.1-10.9-0.1-16.4c0-2,0.5-3.5,1.6-5c1.8-2.4,3.9-4,6.2-5c3.5-1.5,6.6-1.1,8.4-0.8
	c1,0.1,1.9,0.3,2.4,0.5c0.8,0.3,1.7,0.6,2.5,0.9c0.7,0.4,1.4,0.7,2.1,1.1c1.2,0.8,2.5,1.8,3.8,2.9C58.8,36.4,60.6,38.4,62,40.1z"/>
<path class="st3" d="M48.4,19.5c3.8,0,7.7,0,11.5,0c2.1,0,4.1,0,6.4,0c0,7.3,0,14.3,0,21.3c-0.1,0-0.4,0-0.4,0L64,38
	c-1.1-1.2-2.2-2.4-3.6-3.6c-2.3-2.1-4.5-3.8-6.6-5.2c-1.1-0.6-2.2-1.2-3.3-1.8c-0.7-0.3-1.6-0.8-2.7-1.2c-4-1.6-7.3-1.9-8-2
	c-3.4-0.3-6.9,0.2-10.4,1.3c0-1.9,0-3.7,0-6C35.8,19.5,42.1,19.5,48.4,19.5z"/>
<path class="st3" d="M97.9,56.5c0,0-13.5,0-20,0c0-7.3-0.1-14.6-0.1-21.8c0-5,0.2-15.1,0.2-15.1l19.4-0.1c0,0-0.1,6.8-0.1,8.2
	c-0.8,0-8,0-10.7,0c0,2.1,0,4.3,0,6.4c1.6-0.1,8.4-0.1,10,0c0,2.4,0,4.7,0,7.3c-3.3,0-6.6,0-10,0c0,2.5,0,7.3,0,7.3l11.3,0
	L97.9,56.5z"/>
<path class="st3" d="M122.4,28.4c2.1,0,4.1,0,6.1,0c0.7,1.2,0.2,2.3,0.6,3.7c0.9-1.9,2.1-3.3,3.8-4.2c0.9,0,1.8-0.1,3-0.1
	c0,3,0,5.8,0,8.7c-5.2-0.7-6.7,0.5-6.7,5.7c0,4.6,0,9.3,0,14.1c-2.8,0-5.4,0-8.2,0c0-9.3,0-18.6,0-27.8
	C121.4,28.5,121.9,28.5,122.4,28.4z"/>
<path class="st3" d="M101.4,56.5c-1.5-1.4-2.5-3.1-2.5-5.2c0-7.6,0-15.2,0-22.8c0.8,0,1.6-0.1,2.5-0.1c1.8,0,3.7,0,5.5,0.1
	c0,3.7,0,6.6,0,8.6c0,2.9-0.1,5.1,0.2,8.3c0.1,1.2,0.2,2.1,0.3,2.8c0.1,1.1,0.7,2,1.5,2.1c0.9,0.2,2.2-0.9,2.2-2.5
	c0.1-2.8,0.1-5.7,0.2-8.5c0.1-3.6,0.1-7.2,0.1-10.7c2.7,0,5.4,0,8,0c0,9.2,0,18.5,0,27.9c-2.7,0.2-5.3,0.2-7.9,0c0-0.7,0-1.5,0-2.9
	c-2.2,3.7-5.2,4.2-8.5,3.6c-0.2,0-0.3-0.1-0.5-0.1C102.1,56.8,101.7,56.7,101.4,56.5z"/>
<image style="display:none;overflow:visible;" width="860" height="154" xlink:href="C:\Users\CHENN\Desktop\EurekAlert-logo.png"  transform="matrix(0.5 0 0 0.5 -0.1 -0.253)">
</image>
<linearGradient id="SVGID_4_" gradientUnits="userSpaceOnUse" x1="318.4236" y1="48.5208" x2="325.4893" y2="29.1081">
	<stop  offset="0" style="stop-color:#BB342C"/>
	<stop  offset="6.153464e-03" style="stop-color:#BB352D"/>
	<stop  offset="0.3388" style="stop-color:#CC6862"/>
	<stop  offset="0.6272" style="stop-color:#D98D89"/>
	<stop  offset="0.8571" style="stop-color:#E0A4A0"/>
	<stop  offset="1" style="stop-color:#E3ACA9"/>
</linearGradient>
<polygon class="st7" points="317.9,48.3 320.2,42.3 322.6,36.2 325.4,29.1 322.3,38.4 321.6,40.7 319.7,46.5 319.1,48.3 "/>
<linearGradient id="SVGID_5_" gradientUnits="userSpaceOnUse" x1="319.9555" y1="48.513" x2="326.3886" y2="30.8382">
	<stop  offset="0" style="stop-color:#BB342C"/>
	<stop  offset="6.153464e-03" style="stop-color:#BB352D"/>
	<stop  offset="0.3388" style="stop-color:#CC6862"/>
	<stop  offset="0.6272" style="stop-color:#D98D89"/>
	<stop  offset="0.8571" style="stop-color:#E0A4A0"/>
	<stop  offset="1" style="stop-color:#E3ACA9"/>
</linearGradient>
<path class="st8" d="M319.4,48.3l2-5.2c0,0,1.5-3.9,2.1-5.4c2-5.1,2.6-6.9,2.6-6.9s-0.9,2.7-2.8,8.7c-0.2,0.7-0.5,1.5-0.6,1.8
	c-0.8,2.7-1.2,3.7-1.7,5.4c-0.2,0.7-0.5,1.6-0.5,1.6L319.4,48.3z"/>
<linearGradient id="SVGID_6_" gradientUnits="userSpaceOnUse" x1="321.6271" y1="48.6695" x2="327.4151" y2="32.7673">
	<stop  offset="0" style="stop-color:#BB342C"/>
	<stop  offset="6.153464e-03" style="stop-color:#BB352D"/>
	<stop  offset="0.3388" style="stop-color:#CC6862"/>
	<stop  offset="0.6272" style="stop-color:#D98D89"/>
	<stop  offset="0.8571" style="stop-color:#E0A4A0"/>
	<stop  offset="1" style="stop-color:#E3ACA9"/>
</linearGradient>
<path class="st9" d="M320.9,48.4c1.2-2.4,3.5-7.2,3.5-7.2h-0.8c1.1-2.9,2.3-5.7,3.4-8.6c-0.2,0.7-1.8,6.5-2.5,8.6c0.3,0,0.5,0,0.8,0
	l-3.1,7.2L320.9,48.4z"/>
<path id="path10500" class="st10" d="M396.4,39.4l-0.6-0.5c-2.1-1.7-2.7-2.4-2.7-3.5c0-1.4,1.1-2.4,2.6-2.4c1.9,0,2.5,0.8,2.7,1.1
	c0.1,0.2,0.3,0.8,0.3,1c0,0.2,0,0.4,0.3,0.4c0.3,0,0.3-0.4,0.3-0.6c0-1.1,0.1-1.8,0.1-2.1l0-0.2c0-0.2-0.2-0.3-0.3-0.3
	c-0.2,0-0.3,0-0.8-0.1c-0.6-0.1-1.3-0.2-2.1-0.2c-2.9,0-4.7,1.6-4.7,4c0,1.4,0.5,2.8,2.9,4.7l1,0.8c2,1.6,2.5,2.4,2.5,3.8
	c0,1.4-1.1,2.7-3.1,2.7c-0.8,0-2.8-0.2-3.2-2.1c-0.1-0.3-0.1-0.6-0.1-0.8c0-0.1,0-0.3-0.3-0.3c-0.2,0-0.3,0.3-0.3,0.4
	c0,0,0,0.3,0,0.3c0,0.4-0.1,1.2-0.1,2c0,0.6,0,0.7,0.4,0.9h0c0.8,0.4,1.8,0.6,3,0.6c1.3,0,2.5-0.3,3.4-0.9c1.4-1,1.9-2.5,1.9-3.6
	C399.6,42.8,399.1,41.5,396.4,39.4 M352.4,41.5c0,0-4.1,0-4.2,0c0,0,0,0,0,0c0,0,2-5.8,2-5.8c0-0.1,0-0.1,0.1-0.1c0,0,0,0.1,0.1,0.1
	C350.3,35.7,352.4,41.4,352.4,41.5C352.4,41.4,352.4,41.4,352.4,41.5C352.4,41.4,352.4,41.4,352.4,41.5L352.4,41.5z M367.9,41.5
	c0,0-4.1,0-4.2,0c0,0,0,0,0,0c0,0,2-5.8,2-5.8c0-0.1,0-0.1,0.1-0.1c0,0,0,0.1,0.1,0.1C365.8,35.7,367.9,41.4,367.9,41.5
	C367.9,41.4,367.9,41.4,367.9,41.5C367.9,41.4,367.9,41.4,367.9,41.5L367.9,41.5z M383.4,41.5c0,0-4.1,0-4.2,0c0,0,0,0,0,0
	c0,0,2-5.8,2-5.8c0-0.1,0-0.1,0.1-0.1c0,0,0,0.1,0.1,0.1C381.3,35.7,383.4,41.4,383.4,41.5C383.4,41.4,383.4,41.4,383.4,41.5
	C383.4,41.4,383.4,41.4,383.4,41.5L383.4,41.5z M390,48.2c-0.2,0-0.5,0-0.9-0.1c-0.5-0.1-1.1-0.5-1.8-2.3c-1-2.3-3-7.5-4.2-10.6
	l-0.9-2.4c-0.3-0.6-0.4-0.8-0.6-0.8s-0.3,0.2-0.6,0.9l-5,13.3c-0.4,1.1-0.9,1.8-1.8,1.9c0,0-0.1,0-0.1,0c-0.1,0-0.3,0-0.4-0.1
	c-0.5-0.1-1.1-0.5-1.8-2.3c-1-2.3-3-7.5-4.2-10.6l-0.9-2.3c-0.3-0.6-0.4-0.8-0.6-0.8c-0.2,0-0.3,0.2-0.6,0.9l-5,13.3
	c-0.4,1.1-0.9,1.8-1.8,1.9c0,0-0.1,0-0.1,0c-0.1,0-0.3,0-0.4-0.1c-0.5-0.1-1.1-0.5-1.8-2.3c-1-2.3-3-7.5-4.2-10.6l-0.9-2.4
	c-0.3-0.6-0.4-0.8-0.6-0.8c-0.2,0-0.3,0.2-0.6,0.9l-5,13.3c-0.4,1.1-0.9,1.8-1.8,1.9c0,0-0.6,0-0.6,0c-0.2,0-0.3,0.1-0.3,0.2
	c0,0.3,0.4,0.3,0.5,0.3l2,0l0.5,0l0.6,0l1.2,0c0.4,0,0.4-0.1,0.4-0.3c0-0.1,0-0.2-0.3-0.2h-0.2c-0.3,0-0.7-0.1-0.7-0.5
	c0-0.4,0.1-0.9,0.3-1.4c0,0,1.3-3.8,1.3-3.8c0-0.1,0.1-0.1,0.1-0.1h4.8c0.1,0,0.1,0,0.1,0.1l2.1,5.3c0,0.1,0,0.2,0,0.2
	c0,0.1,0,0.1,0,0.1c0,0.1-0.1,0.1-0.1,0.1c-0.2,0-0.2,0.2-0.2,0.2c0,0.2,0.2,0.2,0.7,0.2l0.1,0c0.8,0,1.8,0,2.9,0c0,0,0.1,0,0.1,0h0
	c0.2,0,0.3,0,0.5,0c0.1,0,0.2,0,0.2,0l1.2,0l0.5,0l0.6,0l1.2,0c0.4,0,0.4-0.1,0.4-0.3c0-0.1,0-0.2-0.3-0.2h-0.2
	c-0.3,0-0.7-0.1-0.7-0.5c0-0.4,0.1-0.9,0.3-1.4c0,0,1.3-3.8,1.3-3.8c0-0.1,0.1-0.1,0.1-0.1h4.8c0.1,0,0.1,0,0.1,0.1l2.1,5.3
	c0,0.1,0,0.2,0,0.2c0,0.1,0,0.1,0,0.1c0,0.1-0.1,0.1-0.1,0.1c-0.2,0-0.2,0.2-0.2,0.2c0,0.2,0.2,0.2,0.7,0.2l0.1,0c0.8,0,1.8,0,2.9,0
	c0,0,0.1,0,0.1,0h0c0.2,0,0.3,0,0.5,0c0.1,0,0.2,0,0.2,0l1.2,0l0.5,0l0.6,0l1.2,0c0.4,0,0.4-0.1,0.4-0.3c0-0.1,0-0.2-0.3-0.2h-0.2
	c-0.3,0-0.7-0.1-0.7-0.5c0-0.4,0.1-0.9,0.3-1.4c0,0,1.3-3.8,1.3-3.8c0-0.1,0.1-0.1,0.1-0.1h4.8c0.1,0,0.1,0,0.1,0.1l2.1,5.3
	c0,0.1,0,0.2,0,0.2c0,0.1,0,0.1,0,0.1c0,0.1-0.1,0.1-0.1,0.1c-0.2,0-0.2,0.2-0.2,0.2c0,0.2,0.3,0.2,0.7,0.2l0.1,0c1,0,2.2,0,3.5,0
	c0.4,0,0.5-0.1,0.5-0.3C390.4,48.3,390.3,48.2,390,48.2"/>
</svg>
