<?xml version="1.0" encoding="utf-8"?>
<!-- Generator: Adobe Illustrator 23.0.0, SVG Export Plug-In . SVG Version: 6.00 Build 0)  -->
<!DOCTYPE svg PUBLIC "-//W3C//DTD SVG 1.1//EN" "http://www.w3.org/Graphics/SVG/1.1/DTD/svg11.dtd" [
	<!ENTITY ns_extend "http://ns.adobe.com/Extensibility/1.0/">
	<!ENTITY ns_ai "http://ns.adobe.com/AdobeIllustrator/10.0/">
	<!ENTITY ns_graphs "http://ns.adobe.com/Graphs/1.0/">
	<!ENTITY ns_vars "http://ns.adobe.com/Variables/1.0/">
	<!ENTITY ns_imrep "http://ns.adobe.com/ImageReplacement/1.0/">
	<!ENTITY ns_sfw "http://ns.adobe.com/SaveForWeb/1.0/">
	<!ENTITY ns_custom "http://ns.adobe.com/GenericCustomNamespace/1.0/">
	<!ENTITY ns_adobe_xpath "http://ns.adobe.com/XPath/1.0/">
]>
<svg version="1.1" id="Layer_1" xmlns:x="&ns_extend;" xmlns:i="&ns_ai;" xmlns:graph="&ns_graphs;"
	 xmlns="http://www.w3.org/2000/svg" xmlns:xlink="http://www.w3.org/1999/xlink" x="0px" y="0px" viewBox="0 0 248.8 37.3"
	 style="enable-background:new 0 0 248.8 37.3;" xml:space="preserve">
<style type="text/css">
	.st0{fill:#D71717;}
</style>
<metadata>
	<x:xmpmeta  xmlns:x="adobe:ns:meta/">
		<rdf:RDF  xmlns:rdf="http://www.w3.org/1999/02/22-rdf-syntax-ns#">
			
				<rdf:Description  rdf:about="" xmlns:dc="http://purl.org/dc/elements/1.1/" xmlns:stDim="http://ns.adobe.com/xap/1.0/sType/Dimensions#" xmlns:stMfs="http://ns.adobe.com/xap/1.0/sType/ManifestItem#" xmlns:stRef="http://ns.adobe.com/xap/1.0/sType/ResourceRef#" xmlns:xmp="http://ns.adobe.com/xap/1.0/" xmlns:xmpG="http://ns.adobe.com/xap/1.0/g/" xmlns:xmpGImg="http://ns.adobe.com/xap/1.0/g/img/" xmlns:xmpMM="http://ns.adobe.com/xap/1.0/mm/" xmlns:xmpTPg="http://ns.adobe.com/xap/1.0/t/pg/">
				<xmpMM:Manifest>
					<rdf:Seq>
						<rdf:li  rdf:parseType="Resource">
							<stMfs:linkForm>EmbedByReference</stMfs:linkForm>
							<stMfs:reference  rdf:parseType="Resource">
								<stRef:filePath>C:\Users\CHENN\Desktop\EurekAlert-logo.png</stRef:filePath>
								<stRef:documentID>0</stRef:documentID>
								<stRef:instanceID>0</stRef:instanceID>
							</stMfs:reference>
						</rdf:li>
					</rdf:Seq>
				</xmpMM:Manifest>
				<xmpMM:Ingredients>
					<rdf:Bag>
						<rdf:li  rdf:parseType="Resource">
							<stRef:filePath>C:\Users\CHENN\Desktop\EurekAlert-logo.png</stRef:filePath>
							<stRef:documentID>0</stRef:documentID>
							<stRef:instanceID>0</stRef:instanceID>
						</rdf:li>
					</rdf:Bag>
				</xmpMM:Ingredients>
				<xmpTPg:MaxPageSize  rdf:parseType="Resource">
					<stDim:w>429.800000</stDim:w>
					<stDim:h>77.004989</stDim:h>
					<stDim:unit>Points</stDim:unit>
				</xmpTPg:MaxPageSize>
				<xmpTPg:NPages>1</xmpTPg:NPages>
				<xmpTPg:HasVisibleTransparency>False</xmpTPg:HasVisibleTransparency>
				<xmpTPg:HasVisibleOverprint>False</xmpTPg:HasVisibleOverprint>
				<xmpTPg:PlateNames>
					<rdf:Seq>
						<rdf:li>Cyan</rdf:li>
						<rdf:li>Magenta</rdf:li>
						<rdf:li>Yellow</rdf:li>
					</rdf:Seq>
				</xmpTPg:PlateNames>
				<xmpTPg:SwatchGroups>
					<rdf:Seq>
						<rdf:li  rdf:parseType="Resource">
							<xmpG:groupName>Default Swatch Group</xmpG:groupName>
							<xmpG:groupType>0</xmpG:groupType>
						</rdf:li>
					</rdf:Seq>
				</xmpTPg:SwatchGroups>
				<dc:format>image/svg+xml</dc:format>
				<xmp:Thumbnails>
					<rdf:Alt>
						<rdf:li  rdf:parseType="Resource">
							<xmpGImg:width>256</xmpGImg:width>
							<xmpGImg:height>48</xmpGImg:height>
							<xmpGImg:format>JPEG</xmpGImg:format>
							<xmpGImg:image>/9j/4AAQSkZJRgABAgEASABIAAD/7QAsUGhvdG9zaG9wIDMuMAA4QklNA+0AAAAAABAASAAAAAEA
AQBIAAAAAQAB/+4ADkFkb2JlAGTAAAAAAf/bAIQABgQEBAUEBgUFBgkGBQYJCwgGBggLDAoKCwoK
DBAMDAwMDAwQDA4PEA8ODBMTFBQTExwbGxscHx8fHx8fHx8fHwEHBwcNDA0YEBAYGhURFRofHx8f
Hx8fHx8fHx8fHx8fHx8fHx8fHx8fHx8fHx8fHx8fHx8fHx8fHx8fHx8fHx8f/8AAEQgAMAEAAwER
AAIRAQMRAf/EAaIAAAAHAQEBAQEAAAAAAAAAAAQFAwIGAQAHCAkKCwEAAgIDAQEBAQEAAAAAAAAA
AQACAwQFBgcICQoLEAACAQMDAgQCBgcDBAIGAnMBAgMRBAAFIRIxQVEGE2EicYEUMpGhBxWxQiPB
UtHhMxZi8CRygvElQzRTkqKyY3PCNUQnk6OzNhdUZHTD0uIIJoMJChgZhJRFRqS0VtNVKBry4/PE
1OT0ZXWFlaW1xdXl9WZ2hpamtsbW5vY3R1dnd4eXp7fH1+f3OEhYaHiImKi4yNjo+Ck5SVlpeYmZ
qbnJ2en5KjpKWmp6ipqqusra6voRAAICAQIDBQUEBQYECAMDbQEAAhEDBCESMUEFURNhIgZxgZEy
obHwFMHR4SNCFVJicvEzJDRDghaSUyWiY7LCB3PSNeJEgxdUkwgJChgZJjZFGidkdFU38qOzwygp
0+PzhJSktMTU5PRldYWVpbXF1eX1RlZmdoaWprbG1ub2R1dnd4eXp7fH1+f3OEhYaHiImKi4yNjo
+DlJWWl5iZmpucnZ6fkqOkpaanqKmqq6ytrq+v/aAAwDAQACEQMRAD8AjAzmX2BeMKF4woXrigqg
woXjFiuGFC8YUL1xQV4xYrxhQsupvSt3fvSi/M4CdkwjZSPKnMdirsVdirsVdirsVdirsVdiqL1C
GKL6t6a8ecCO/uxrU5KQascibvvQmRbXYq7FXYq7FXYqnWmpxtFP8xJ/hlseTiZT6kVkmt2KscGU
OcvGFD0jRvInkGfRLG91PzOlld3MYklteURZCTShWvIfTmbDBjMQTKi8/qO0tVHLKMMXFEHnuyLT
fyW8oalGZNO8xNeIv2mgMMlK+PEmn05dHRQlylbr83tDqMZqeLh99hFTfkJo8UMkg1S4JRSwHBOw
rkjoB3tUfafISBwD5vLvKWhprvmGz0l5jAt0zKZQvIrxRm6VH8uYGKHHIB6bXanwMUslXwvVI/yD
0wA+pq0zHtxiRf1lszxoB3vLn2nn0gPm8286eX7by/5judJt5muEtxGTI4Aarxq9Ntv2sw82MQlT
0fZ+qOfCMhFXf30ky5U5hXjFivGFCN8v6CnmTzPp+gvObZLr1WaZVDlfTieQfCSOvCnXJY8fHMRa
NXqjp8MstXw19pAW/mN5Li8o63BpsV014s1styZGQIQWkdONAW/33jqMPhyq72T2T2gdXiMyOGpV
9g/Wl3k7y6/mPzHZ6OshhFyzc5gvLgqIXY0qOy5Xhx8chFv1+rGnwyyVdM487/kvF5c8t3OsW+pP
dm2MfOFognwu4StQzdCwzLz6LgjxA26Xs72gOozDGY8N31+PchPLf5UW2seR5PMrai8MiRXEn1YR
Bgfq/Kg5ch9rh4ZHHpBLHxW3avts4tSMPDe8d773nOYT0DsVTDQNJbWNbstLWUQtezJCJSOQXmaV
pUVyeOHFIDvaNTn8LHKdXwi2Q/mH+XU3k39H+pfLe/X/AFqcYzHx9Hh4s1a+pl2o0/h1vduv7K7W
Gr4qjw8Ndb53+pN/Nn5SQaF5PXzBHqTXD8YGaBoggpMQNmDN0LZZl0nBDitxdF24c+o8Exrnvfc8
3zCehR2q/wDHn/zDR/xyUujTh6/1igci3OxV2KuxV2KuxVP7VSttGp2IUVGXDk4UzuVXCxdirHBl
DnLxhQ9q/Kz8qtHu9Hh1zXI/rbXYLWtoSRGkYJAZ+JHJmp06Ae/TZ6XSxMeKTx/bXbeSGQ4sR4eH
mU5vLDyu2oXi6LoLQfomQQ3GrWVxFYPHOQD6cXJkWRhyoQ9FrtlhjCzwx5dRs4mPLn4I+JkvxBYj
KJnY7z3fDdOtJ8zzGFtP1SX1HlEkVnflPRMkkakvbzxn+6uFG9PsuN1y2GXofx+1ws+iF8eMcqJj
zofzonrH7R1eM/lZ/wAp7pH/ABkk/wCTL5rdL/eB7Dtr/FZ+79Ie1edvKGsa/LaPp+syaULdXEix
8/3hcrQng6dKZs8+GU6o08b2dr8eASE4Cd+79SXeV/J2nRaZqkOsQ2+sahbXMiNqFzCskrAQRsvx
Sc2+GtBvkMWEUeLcuRrdfM5IHGTjgYj0g0OZ7kp8laDodx+V0t7cadazXggvCLmSGNpaoX4nmQW2
ptvleHHE4roXu5faOpyx1wiJSEbjtZroyzWdG8gaRbpqWo6dZWkFu44yLbruzAqAUjUl+taUPj2z
InDHEWQA6nT6jV5SYQlORP8AS/Wdkvj0jQPL2iah5ih05dTmvJWu0CxjkYrmb90kaspKKqSCopkO
CMImVXbkHPl1GWOEy4BEcPPrEbk9+4XXPlfSD5q8s+ZbG1WzuJHljuI1QR80mspnUuoH21Ip9PsM
TijxxmBX9hRHWZPAy4ZniAqvhOI+SM1PydpN/wCbJNf1iCC5s7fTo7aGK5VHjVlllklkZXBHwqVo
fc5OWEGfFLlTTh1+SGAYsZIkZk7c+QADB/yzl03XfzI1fWdMsoLLStPtvq9lFbxJCP3j0WRggUcn
VHPj27ZiaYieUyAoB3fbAng0cMc5GU5Ss2b5dPhszW6nXzT5Z8y6elGeKW805QKbSRL8FaeDEZlE
+JCQ94dNCP5bPin3iMvgebH/AMuEaT8mpUUVZ4L9VHuTIMp039x83P7WNdog+cP0JhLo3ljyTo+m
WsWhrqT3U0dnczrEskh5j95NIzKx41H2enyyZhDFEDhtojqM+syTkcnBwgyAuh5AfrVF/LzytB51
N0NLtXtL2xkL2jwo8KTQyxDmiMCqllkpt4Yfy8BkuhRDA9q55abh45cUZjezdEHa/gvhuvyx0DzO
uj29va22u3ciUjityWV3A9NeapxjBFCACPHvXEHFCfDtxFEoa3Pg8QmRxRHWXz67pV+e+o6VB5SF
lcU/SF44NgChY0ikjMtHpRfhYd98r18gIUeZcr2axZDn4h9Efq+INKX5n3DN+UFq9APXjseQ+YV9
vuwao/uR8GfY8P8AXCXkZvn3NQ92jtV/48/+YaP+OSl0acPX+sXpX5DSWsJ8wXFwiukMMDDkAd6y
UAr4nbM7QEDiJed9pRKXhxj1J/QnWsvFoHnbQ/NBiRdN1nlYansOFagLI1enY/JPfLJ+icZ9DsXE
wA59NkwX68fqj+r8d7B/zR06W8/NS+0+0QercyWkMKAUHKS3iA6e5zF1UbykDydx2NlEdDGcuQEj
/spMf83aBFomsta2831mxljjubG6/wB+wTKGVtvpH0ZTlx8MqHJz9DqTmx8RFSBII7iER5t8pPoE
WmSCX1lvYCZzt+6u4m4zwbd4yVyWXFwV5/ew0Wu8cyFVwnbzifpl8W9S8ovZ+UdP10S85bmQrd2/
++UkBNsx/wCMixu3ypjLFUBL8eS4tdx55Yq2A2Pf/O+Vj7WQ6roWm6bothMRcyT3tpFcQXgKfVWk
YjnCAFLVjUmp5V5dsulARiPMODg1M8mSQ9IEZEEfxeR+Pu5dWP5U5zsVY4Moc5eMKH1P+Wv/ACgm
i/8AMMv6zm+0392HzLtj/Gsn9Zh91M3lfzhqdhfy/VNN124Go6XqUi8oEujUSxzDb4H5FG32FDtW
oxifDmQeUtwXb44/mdPCcBxTxx4ZR68PQjzHMeac+Y9Gkk8p+YtS1SS3SW4tknhFo7NCstohMMqO
wQ85DxXbsAN8tyQ9EifxTh6TUAZ8UMYlQkQeLnUuY9weTflZ/wAp7pH/ABkk/wCTL5r9L/eB6rtr
/FZ+79Iex+f/AC15x1mayby9qv6OSFZBcL9Yng5livH+5Vq0oeubLUY5yrhNPIdl6zT4RLxocd1W
wP3ovyJomraZo13Y6zci9vmuXae4WR5eQeKOlXkCsTxyWCBjEiW5tq7T1GPJkjPGOGPDsKA6nuQ+
j6DdaD+W0+mXZQ3MNpeGUxklSX9RxQkD9lhkYYzDFR7i2Z9THPrROP0mUf0JZ+eBI8p2oBpW/jB/
5EynIa76B73J9nP78/1D98U2hv8AWX/Le0vNBRZtUWytzDHQEFkCCVQCdzQMB75YJS8IGPOnElix
jWSjl2hxyv7a/QoJF5stNY8u/pjV4Lpbq5kWSzitRCVYWNw5PqCWTkFK0+zkamJR4j9nkWZlp5Y8
vhwMeGI34r/jj0oMhl1TTLjV5vLsw5XLWYunhYfA8EjtC3zoV3+Yy8yBPD5OBHDOOMZhy4q+Iosc
/LTyU3lWPWoXHwzXp+rSHq1qiAxEnx+NgffKNNh8O/e7DtjtD8ycZHSG/wDW6/cmPk3W/JWpfpD/
AAxKjn1vXvwiSx1lmr8Z9RVqW4dRk8M8cr4HH7Q0+px8PjjpUeXIdNkJoVkNE8mavb8aR2kupNGv
/FfqSOn/AAhGRhHhgR3W3anJ42pgf5wx/OgjvNlz5naz07/DBjL3V1ElzcuolWO2dW5S8SVqBsdj
k8pnQ4O9o0MMAlLx79MTQ5XLuUdLh1228zQwarqkOos1lPJGsVsLYxj1YBU/vJeXLt06YIiQnub2
7vczzSxSwE44GHrj/FxXtLyDyvzF/wCtAxf8xtj/AMmIc1+T/GPiHp9J/wAZR/qT++TIP+chNHv7
nS9L1OFA1pp7TLdNyAK/WDEsdAdzUp2y7tCBIB6BwPZbPGM5wP1SqvhdpT58i83f8qs0pL5LBdMt
0sykkMsz3DgQ8E5K8aoCeVWo2V5xPwhdVs5fZp0/56fBx8Z4uYFc9+tvIM1z1aO1X/jz/wCYaP8A
jkpdGnD1/rFMPLfmd9Gtb2BQ3+mPAXK03WEueJr4swP0ZPHl4QfNo1WkGWUSf4b+2ma+cPzK8n65
5K/QUNtfC8i9OS3nlihVPWQ/Ex4ysRyDN0HfMrNqYSx8O9um0HZGow6nxSYcJuxZ5fL3MZs/NdtL
rN55hv5HXV1slhsAEEitcrarbCZ2JAFOPIfCfiPtlAyjiMjzr9FOynoiMccUP7viuXT08XFQ+73I
uy8z+X9QttEk8xPL9d0W4faGBGSe1qJY424tHx4y1Gw+yclHLEgcXOP3NWTR5YHIMNcOQdTylyJ6
9PtUE82WetaPeab5muJFdryO9sruCBGZWYstwCoMf21II36jfB4olEiXff62Z0UsWSM8IH0mJBJ/
ze/l9yIfztp95d63p16zL5dv4PR09Y4kMkBtyv1NiBxLemq8SOXQnD4wJIP0n8BgOz5wjjnH+9ib
lvsb+v580WutadB5ZudMtLqa6t70QPFbyxhVt5UIaRwxY7mhX4RuDvkuMCNDq1nTzlmE5ARMb3B5
joP0sfypznYqxwZQ5y8YUMs0z8z/ADzplhBYWWpelaW6hIY/Qt24qO1WjZj9JzIjqckRQOzq83Y+
myTM5RuR85frW6x+Yfm/WrFrHVL1bq1YhijW9uCGHQqyxhlPuDgnqJyFE/cnT9lafDLihHhl/Wl+
tJl1C/FqbQXMv1Qmpt+bemT1rwrxyviNU5nhR4uKhxd/VW0nVL/Sr+HULCX0buAkxS8VahIKn4XD
Kdj3GGEjE2ObHPhjlgYTFxLKB+bf5g/9XX/p3tv+qWX/AJvJ3/c6z+QtJ/M/2Uv1tWn5ped7e7mu
vr4kkuAolDxRcSUFFIVVUAgeHXviNVMG7WfYumlER4dh5lbJ+Zfnea2ntpdTZ4LkOsytFCaiQEMA
xTkBQ7UO3bE6nJVWyHZGmEhIQ3HmenxQmsecPMmtWqWuqXzXNujiVY2VFAcAqD8KqejHIzzSkKJb
cGgw4ZcUI0eSrpP5heaPLlg0OnXQ+r1qtvKqyIGY7la7r9BxhqJwGxYZ+ysGolcxv3jZKdQ/MXzh
fa1b6zNqDLe2YcWhRUCRCRSj8EoV+JTQkiuVy1EzLivcOTi7K08MZxiPplz8681KTz55uk1mLWn1
JzqkMRt47njGCIiWPDiF4kVc9RgOefFxXuzHZunGM4xEcBN1vzRz/mt+YLoyNrEhVgQw9OHodv5M
n+ayd7SOxdIDfAPt/Wk+g+adf8vyTSaPeNaPcALMVCtyCkkVDhulcrx5ZQ+k05Wp0eLOAMkeKk3l
/NXz9Laz2smql4LlWSdTDbksrrxYcvT5fZ98sOqyVVuKOxdKJCQhuOW8v1qmi/mx540iwjsLa+D2
sK8IEmjSQoo2AViOVF7Amgww1eSIoFjqOxNNllxyj6jzo0gU/MLzkmrzawupyDUbiMQyTcUP7sHk
EVSvFVrvRRkPzE+LivdvPZenOMY+AcAN1vzSy/17V7/VzrF1ctJqZZJPrQojhogFRhxCgFQg6ZCW
Qk8RO7kYtNjhj8OI9Hd7+ab61+ZHnPW9LbTNTv8A17NypkT0YVLFCGWrIitsR2OWT1M5CidnE0/Z
Onwz44RqXvP61DUvPfmvU9Gi0W+vvW02ERrHB6UK0EQonxqiuaDxORlnnKPCTs2YezcGPIckY1M3
vZ68+tJBlTnI7Vf+PP8A5ho/45KXRpw9f6xQORbnYq7FXYq7FXYqnenPytE/yaj7jlseTiZR6kTk
mt2KpiPyb/Mj/q0f9PNr/wBVcn+Ty933OL/L+j/n/wCxl+pePyd/Mf8A6tH/AE8Wv/VXH8nl7vuR
/L+j/n/7GX6lw/J78xv+rR/08Wv/AFVw/k8vd9y/y9o/5/8AsZfqXD8n/wAxf+rT/wBPFr/1Vx/J
5e77kfy9o/5/+xl+pePyh/MT/q0/9PFt/wBVcfymTu+5H8u6T+f/ALGX6lw/KL8w/wDq0/8ATxbf
9VcP5TJ3fcj+XdJ/P/2Mv1Lh+Un5hf8AVq/6eLb/AKq4/lMnd9yP5d0n8/8A2Mv1Lh+Uv5g/9Wr/
AKeLb/qph/KZO77kfy5pP5/2S/UuH5TfmB/1av8Ap4tv+qmP5TJ3fcj+XNJ/P+yX6l4/Kjz/AP8A
Vr/5L23/AFUx/K5O77kfy3pP5/2S/Uh778pPzDliVI9JrvU/6RbDt7y4JaTJ3fczx9uaQHef+xl+
pA/8qa/Mj/qz/wDTza/9Vch+Ty933N38v6P+f/sZfqd/ypr8yP8Aqz/9PNr/ANVcfyeXu+5f5f0f
8/8A2Mv1O/5U1+ZH/Vn/AOnm1/6q4/k8vd9y/wAv6P8An/7GX6nf8qa/Mj/qz/8ATza/9VcfyeXu
+5f5f0f8/wD2Mv1O/wCVNfmR/wBWf/p5tf8Aqrj+Ty933L/L+j/n/wCxl+p3/KmvzI/6s/8A082v
/VXH8nl7vuX+X9H/AD/9jL9Tv+VNfmR/1Z/+nm1/6q4/k8vd9y/y/o/5/wDsZfqd/wAqa/Mj/qz/
APTza/8AVXH8nl7vuX+X9H/P/wBjL9Tv+VNfmR/1Z/8Ap5tf+quP5PL3fcv8v6P+f/sZfqd/ypr8
yP8Aqz/9PNr/ANVcfyeXu+5f5f0f8/8A2Mv1O/5U1+ZH/Vn/AOnm1/6q4/k8vd9y/wAv6P8An/7G
X6le6/KT8yZ/Rro3H0o1i/3ptTXj3/vckdJlPT7Qwh25oxfr5n+bL9Sh/wAqa/Mj/qz/APTza/8A
VXI/k8vd9zP+X9H/AD/9jL9Tv+VNfmR/1Z/+nm1/6q4/k8vd9y/y/o/5/wDsZfqd/wAqa/Mj/qz/
APTza/8AVXH8nl7vuX+X9H/P/wBjL9Tv+VNfmR/1Z/8Ap5tf+quP5PL3fcv8v6P+f/sZfqd/ypr8
yP8Aqz/9PNr/ANVcfyeXu+5f5f0f8/8A2Mv1O/5U1+ZH/Vn/AOnm1/6q4/k8vd9y/wAv6P8An/7G
X6kw078pvzChjdJdK471X/SLY9vaXLI6TIOn3NGXtzSE7T/2Mv1Iv/lVnnz/AKtn/Je3/wCqmS/K
5O77mv8AlrS/z/sl+p3/ACqzz5/1bP8Akvb/APVTH8rk7vuX+WtL/P8Asl+p/9k=
								</xmpGImg:image>
						</rdf:li>
					</rdf:Alt>
				</xmp:Thumbnails>
			</rdf:Description>
		</rdf:RDF>
	</x:xmpmeta>
	<sfw  xmlns="&ns_sfw;">
		<slices></slices>
		<sliceSourceBounds  bottomLeftOrigin="true" height="77" width="430" x="-0.1" y="0.3"></sliceSourceBounds>
	</sfw>
</metadata>
<path class="st0" d="M143.5,20.8c2,4.1,3.9,8.2,6,12.8c2.5-11.5,4.9-22.5,7.3-33.5c3.6,0,7.1,0,10.8,0c2.7,12.3,5.3,24.6,8,37.1
	c-3,0-5.9,0-9.1,0c-0.3-1.9-1-6.2-1-6.2l-6.8-0.1c0,0-0.6,4.1-1,6.4c-5.2,0-10.3,0-15.5,0c-1.3-2.9-4.1-9.3-4.1-9.3
	c-0.2,1.1-1.3,7.5-1.7,9.3c-2.6,0-5.3,0-7.9,0c0-12.4,0-24.8,0-37.1c2.7,0,5.3,0,8,0c0,6,0,17.7,0,17.7l0.5,0.2c0,0,2.8-5.9,4.3-8.9
	c2.8,0,5.6,0,8.8,0C148,13.2,145.8,16.9,143.5,20.8z M160.9,15.9c-0.4,2.5-1.1,7.6-1.1,7.6h4.8c0,0-0.7-4.6-1.1-6.8
	c-0.4-2.7-0.9-5.4-1.4-8C161.7,11,161.3,13.4,160.9,15.9z"/>
<path class="st0" d="M224.1,1c3,0,5.5,0,8.3,0c0,2.4,0,4.7,0,7.1c1.2,0.1,2.2,0.2,3.2,0.3c0,2.7,0,5.4,0,8.1c-1,0.1-1.9,0.2-3,0.3
	c0,4.4,0,8.9,0,13c0.9,1.2,2.1,0.8,3,1.3c0,1.9,0,3.8,0,5.8c-2.3,0.4-4.5,0.6-6.7,0.3c-3.3-0.5-4.6-1.8-4.7-5.3
	c-0.1-4.9,0-9.8,0-14.8c-2-0.6-3.9-0.5-5.8-0.1c-2.2,0.5-2.8,2.2-2.8,4.2c-0.1,4.3,0,8.7-0.1,13c0,0.9,0,1.8,0,2.8
	c-2.8,0-5.4,0-8.2,0c0-9.2,0-18.4,0-27.7c2.5,0,5.1,0,7.9,0c0,1.1,0,2.1,0,3.4c2.4-3.5,2.4-3.5,8.8-4.6C224.1,5.7,224.1,3.4,224.1,1
	z"/>
<path class="st0" d="M193.7,24.4c0.1,2.6-0.7,4.9,0.8,6.9c0.9,0.6,1.6,0.5,2.3,0.3c1.6-1.1,1.2-2.9,1.6-4.4c2.3,0,4.6,0,6.9,0
	c1,4.8-1.9,9.1-6.8,10c-2,0.4-4,0.3-6-0.1c-3.4-0.6-5.5-2.6-6.4-5.8c-1.5-5.5-1.5-11,0-16.6c1.3-4.6,4.6-6.6,10.2-6.4
	c5.1,0.1,7.7,2.2,8.9,7c0.7,2.9,0.8,5.8,0.5,9.1C201.8,24.4,197.8,24.4,193.7,24.4z M198.3,19.6c-0.1-2.2,0.6-4.3-1.4-5.7
	c-0.7-0.5-1.7-0.5-2.3,0.1c-1.5,1.6-1.4,3.6-1.1,5.6C195.1,19.6,196.6,19.6,198.3,19.6z"/>
<path class="st0" d="M116.3,37.3c-1.2-0.1-4.5-0.3-6.8-2.7c-2.3-2.3-2.4-5.5-2.7-8.5c-0.2-2.4-0.1-4.9-0.1-7.2c0-0.3,0-0.7,0-1.1
	c0-0.2,0-0.5,0.1-0.7c0-0.1,0.1-0.3,0.2-0.5c0.5-1.3,2.1-5.9,6.1-7.7c4.7-2.3,9.7,0.4,10.2,0.7c2.1,2,2.9,3.9,3.3,5
	c0.6,1.8,0.7,3.3,0.8,6c0,1.2,0,2.4,0,3.6c-4,0-8,0-12.1,0c-0.3,2.1-0.3,3.8,0.1,5.5c0.2,0.9,0.5,1.4,1,1.7c0.3,0.2,0.7,0.2,0.9,0.2
	c0.2,0,0.5,0,0.8-0.1c0.3-0.1,0.5-0.3,0.6-0.4c0.1-0.2,0.3-0.4,0.5-0.8c0.2-0.5,0.3-0.8,0.5-1.6c0.1-0.3,0.2-0.9,0.4-1.6
	c2.4,0,4.6,0,6.9,0c0,0.6,0,1.2,0,1.8c0,1.1-0.6,3.9-2.7,6C121.5,37.6,117.5,37.4,116.3,37.3z M114.9,19.6c1.8,0.1,3.2,0.3,4.9-0.2
	c-0.1-2,0.5-3.9-1.3-5.4c-0.7-0.6-1.7-0.6-2.3,0C114.4,15.4,114.8,17.4,114.9,19.6z"/>
<path class="st0" d="M184.1,37.3c-2.6,0-5.2,0-7.9,0c0-12.3,0-24.7,0-37.1c2.6,0,5.1,0,7.9,0C184.1,12.5,184.1,24.8,184.1,37.3z"/>
<path class="st0" d="M247.7,26.3c-2.1,0-4,0-6.1,0c-0.9-8.6-1.1-17.2-0.9-26.1c2.6,0,5.1,0,7.9,0C249,8.9,248.6,17.6,247.7,26.3z"/>
<path class="st0" d="M248.6,29.2c0,2.6,0,5.1,0,7.7c-2.6,0.3-5.1,0.2-7.7,0c0-2.6,0-5.1,0-7.8C243.4,29.2,245.9,29.2,248.6,29.2z"/>
<path class="st0" d="M32.8,20.9c0.4,0.6,0.8,1.2,1.3,1.9c0.4,0.7,0.8,1.4,1,2.1c0.1,0.2,0.2,0.5,0.3,0.9c0.3,0.8,0.4,1.3,0.5,1.8
	c0.1,0.4,0.2,1,0.1,1.8c0,1-0.1,1.8-0.2,2.4c-0.2,1.1-0.4,2.3-1.3,3.1c-0.3,0.3-0.7,0.4-0.7,0.5c0,0-0.7,0.3-1.7,0.3
	c-4.5-0.1-8.5-2.9-8.5-2.9c-1.4-1-5.6-4.3-6.8-9.2c-0.2-0.9-0.9-3.5,0.4-5.2c0.3-0.4,0.7-0.7,0.8-0.8c1.2-0.8,2.7-0.6,3.5-0.4
	c4.4,0.8,6.6,5.2,6.7,5.5c0.9,2,0.5,2.9,0.5,3.1c-0.3,0.7-0.9,1-1.3,1.2c-0.5,0-1.3,0.1-2.2-0.3c-0.8-0.3-1.3-0.7-1.5-0.9
	c-1.6-1.3-2.2-3.2-2.4-3.9c0-0.1-0.1-0.4,0-0.8c0.1-0.1,0.2-0.2,0.3-0.3c0.8-0.4,2.4,1.4,3.1,1c0.1,0,0.2-0.1,0.2-0.2
	c0.1-0.2,0-0.5,0-0.5c-0.1-0.2-0.2-0.5-0.5-0.8c-0.2-0.3-0.5-0.5-0.7-0.6c-0.2-0.1-0.6-0.3-1-0.4c-0.4-0.1-0.8-0.2-1.1-0.2
	c-0.2,0-0.9,0.1-1.6,0.8c-0.6,0.7-0.7,1.4-0.7,1.6c-0.3,1.5,0.4,2.9,0.7,3.6c1.2,2.4,3.2,3.3,3.8,3.6c1.5,0.8,2.8,0.7,3.1,0.7
	c0.7,0,1.5,0,2.3-0.6c0.9-0.6,1.2-1.6,1.4-2.1c0.5-1.6,0.1-3,0-3.7c-1-3.5-5.2-8.6-10.9-9c-4.2-0.3-7.1,2.4-7.4,6.8
	c-0.4,5.7,2.1,10.1,5.9,14c0.8,0.8,1.8,1.5,3,2.7c-7.2,0-14.3,0-21.5,0c0-8.4,0-14.6,0-16.8c0-0.5,0-1.6,0.4-2.9
	c0.3-0.8,0.6-1.5,1.2-2.2c1.8-2.5,3.9-4.1,6.2-5.1c3.5-1.6,6.8-1.1,8.4-0.8c1.2,0.2,2.1,0.4,2.5,0.5c0.9,0.3,1.8,0.6,2.4,0.9
	c0.3,0.1,0.6,0.3,1,0.6c1.2,0.7,2.6,1.6,4.9,3.5C28.6,16.4,31.2,18.6,32.8,20.9z"/>
<path class="st0" d="M19.2,0c3.8,0,7.7,0,11.5,0c2.1,0,4.1,0,6.4,0c0,7.3,0,14.3,0,21.3c-0.1,0-0.4,0-0.4,0l-1.9-2.8
	c-1.1-1.2-2.2-2.4-3.6-3.6c-2.3-2.1-4.5-3.8-6.6-5.2c-1.1-0.6-2.2-1.2-3.3-1.8c-0.7-0.3-1.6-0.8-2.7-1.2c-2.5-1-4.7-1.5-6.2-1.7
	c0,0-0.9-0.2-1.8-0.3C6.7,4.3,2.3,5.3,0,6c0-2,0-4,0-6C6.4,0,12.8,0,19.2,0z"/>
<path class="st0" d="M68.7,37.3h-20L48.8,0c0,0,12.9,0,19.4,0c0,0-0.1,6.9-0.1,8.3c-0.8,0-8,0-10.7,0c0,2.1,0,4.3,0,6.5
	c1.6-0.1,8.4-0.1,10,0c0,2.4,0,4.7,0,7.4c-3.3,0-6.6,0-10,0c0,2.5,0,7.4,0,7.4h11.3L68.7,37.3z"/>
<path class="st0" d="M99.3,8.9c0.7,1.2,0.2,2.3,0.6,3.8c0.9-1.9,2.1-3.4,3.8-4.3c0.9,0,1.8-0.1,3-0.1c0,3.1,0,5.9,0,8.9
	c-5.2-0.7-6.7,0.5-6.7,5.8c0,4.7,0,9.5,0,14.4c-2.8,0-5.4,0-8.2,0c0-9.5,0-19,0-28.3C92.2,9,97.3,8.9,99.3,8.9z"/>
<path class="st0" d="M71.8,36.2c-0.4-0.3-0.9-0.9-1.4-1.6c-0.7-1.2-0.7-2.4-0.7-3V9h8c0,0,0,6.5,0,8.5c0,2.9-0.1,5.1,0.2,8.2
	c0.1,1.2,0.2,2.1,0.3,2.8c0.1,1.1,0.7,2,1.5,2.1c0.9,0.2,2.2-0.9,2.2-2.5c0.1-2.8,0.1-5.7,0.2-8.4c0.1-3.6,0.1-10.6,0.1-10.6h8v27.7
	h-7.9c0,0,0-1.5,0-2.9c-0.4,0.6-1.3,1.9-2.9,2.7c-1.4,0.7-2.7,0.7-3.3,0.7c-1,0-1.8-0.1-2.1-0.2C73,36.9,72.3,36.5,71.8,36.2z"/>
<image style="display:none;overflow:visible;enable-background:new    ;" width="860" height="154" xlink:href="C:\Users\CHENN\Desktop\EurekAlert-logo.png"  transform="matrix(0.5 0 0 0.5 -29.2953 -19.753)">
</image>
</svg>
