<?xml version="1.0" encoding="utf-8"?>
<!-- Generator: Adobe Illustrator 23.0.0, SVG Export Plug-In . SVG Version: 6.00 Build 0)  -->
<!DOCTYPE svg PUBLIC "-//W3C//DTD SVG 1.1//EN" "http://www.w3.org/Graphics/SVG/1.1/DTD/svg11.dtd" [
	<!ENTITY ns_extend "http://ns.adobe.com/Extensibility/1.0/">
	<!ENTITY ns_ai "http://ns.adobe.com/AdobeIllustrator/10.0/">
	<!ENTITY ns_graphs "http://ns.adobe.com/Graphs/1.0/">
	<!ENTITY ns_vars "http://ns.adobe.com/Variables/1.0/">
	<!ENTITY ns_imrep "http://ns.adobe.com/ImageReplacement/1.0/">
	<!ENTITY ns_sfw "http://ns.adobe.com/SaveForWeb/1.0/">
	<!ENTITY ns_custom "http://ns.adobe.com/GenericCustomNamespace/1.0/">
	<!ENTITY ns_adobe_xpath "http://ns.adobe.com/XPath/1.0/">
]>
<svg version="1.1"
	 id="svg16" xmlns:x="&ns_extend;" xmlns:i="&ns_ai;" xmlns:graph="&ns_graphs;" xmlns:cc="http://creativecommons.org/ns#" xmlns:dc="http://purl.org/dc/elements/1.1/" xmlns:inkscape="http://www.inkscape.org/namespaces/inkscape" xmlns:rdf="http://www.w3.org/1999/02/22-rdf-syntax-ns#" xmlns:sodipodi="http://sodipodi.sourceforge.net/DTD/sodipodi-0.dtd" xmlns:svg="http://www.w3.org/2000/svg"
	 xmlns="http://www.w3.org/2000/svg" xmlns:xlink="http://www.w3.org/1999/xlink" x="0px" y="0px" viewBox="0 0 231.8 83"
	 style="enable-background:new 0 0 231.8 83;" xml:space="preserve">
<style type="text/css">
	.st0{fill:#0A70A3;}
</style>
<metadata  id="metadata13">
	<rdf:RDF>
		<cc:Work  rdf:about="">
			<dc:format>image/svg+xml</dc:format>
			<dc:type  rdf:resource="http://purl.org/dc/dcmitype/StillImage"></dc:type>
			<dc:title></dc:title>
		</cc:Work>
	</rdf:RDF>
	<sfw  xmlns="&ns_sfw;">
		<slices></slices>
		<sliceSourceBounds  bottomLeftOrigin="true" height="67.6" width="231.8" x="0.5" y="63"></sliceSourceBounds>
	</sfw>
</metadata>
<sodipodi:namedview  bordercolor="#666666" borderopacity="1.0" fit-margin-bottom="0.5" fit-margin-left="0.5" fit-margin-right="0.5" fit-margin-top="0.5" id="base" inkscape:current-layer="layer1" inkscape:cx="165.22179" inkscape:cy="48.723889" inkscape:document-rotation="0" inkscape:document-units="px" inkscape:pageopacity="0" inkscape:pageshadow="2" inkscape:window-height="874" inkscape:window-maximized="0" inkscape:window-width="1440" inkscape:window-x="0" inkscape:window-y="26" inkscape:zoom="2.6199528" lock-margins="true" pagecolor="#00ffff" showgrid="false" units="px">
	</sodipodi:namedview>
<path id="path13255" class="st0" d="M77.3,16h14.2v51.2H77.3V16z"/>
<path id="path13257" class="st0" d="M98.9,67.2V16h39V26h-24.8v10.6h22.8v9.9h-22.8v10.8h24.8v9.9H98.9z"/>
<path id="path13259" class="st0" d="M145.9,67.2V16h39V26h-24.8v10.6h22.8v9.9h-22.8v10.8h24.8v9.9H145.9z"/>
<path id="path13261" class="st0" d="M192.8,67.2V16h39V26H207v10.6h22.8v9.9H207v10.8h24.8v9.9H192.8z"/>
<path id="path13263" class="st0" d="M31.8,16.6c2.3-1.8,5.1-0.3,7,1.3c2,1.5,4.1,3.2,5.9,5l0.3,0.2c5,4.7,9.7,9.9,13.6,15.4
	c0.6,1,1.2,2,0.8,3.3c-1.3,3.2-3.9,5.8-6.2,8.6c-4.9,5.3-10.1,10.4-16,14.5c-1.2,0.8-2.8,1.6-4.2,0.9c-4.3-2.2-7.9-5.9-11.7-9.3
	c-4.3-4-8.7-8.7-12-13.7c-0.5-0.7-0.6-1.5-0.6-2.4c0.4-1.7,1.6-3.1,2.7-4.5c3.9-5,8.7-9.7,13.5-14c0.1-0.1,0.3-0.3,0.5-0.5
	C27.6,19.8,29.6,18.2,31.8,16.6 M38.4,11.5l-2.6-3.6c-0.3-0.2-0.7-0.5-1.1-0.6c-0.8-0.3-1.6,0.1-2.2,0.5l-4.6,6
	C20.6,23,11.8,31.6,2.2,38.2c-0.8,0.6-1.9,1.2-2.1,2.2c-0.2,0.9,0.2,1.6,0.7,2.1c7.7,5.3,15,11.6,21.6,18.7c1.2,1.2,2.1,2.4,3.2,3.6
	c1.9,2.5,4.2,5.1,5.9,7.8c0.6,0.6,0.6,1.5,1.5,1.8c0.7,0.2,1.5,0.4,2.2,0l0.6-0.6c8-11.3,18-21.4,29.3-29.5c1.1-1,3.3-1.4,3.3-3.3
	c-0.1-0.9-0.6-1.7-1.3-2.2l-0.2,0c-5.8-3.9-11.2-8.4-16.3-13.5L45,19.5C42.8,16.9,40.6,14.1,38.4,11.5 M32.6,18
	c2.3-1.6,4.4,0.6,6.2,1.9c6.9,5.6,13.5,12,18.4,19.2c0.6,0.9,0.9,2.4,0.4,3.4c-1.3,2.2-3,4.1-4.7,6.1v0.1
	c-4.1,4.4-8.5,8.9-13.2,12.6c-2.3,1.4-4.4,4.4-7.3,2.6c-6.7-4.9-13.2-11-18.6-17.6c-0.9-1.4-2.4-2.6-3-4.3c-0.9-2.2,1.1-3.8,2.2-5.5
	C18.6,29.7,25.5,23,32.6,18 M34.1,22.5l-0.6,2l-3.1,9c0.8,0.1,1.8,0,2.5,0.1v0.1l-0.5,10.2l0.1,0.1c1,0.1,2.3,0.1,3.3,0v-0.2
	l-0.4-9.9l0.1-0.3l2.8,0C36.8,29.9,35.5,26.2,34.1,22.5L34.1,22.5z M23.4,36.6c-1.8,0.9-4.4,2.2-4.1,4.6c0.4,1.3,1.8,2.2,2.9,2.7
	c6.3,2.7,14.5,2.8,21.1,0.8c1.6-0.6,3.8-1.5,4.1-3.5c0-1.7-1.8-2.7-3-3.3v-0.1c0.4-0.2,0.9-0.3,1.4-0.4v0c-2.2-0.4-4.3-1-6.5-1.5
	c0.4,0.9,0.7,1.9,1.1,2.9c0.6-0.2,1.3-0.4,2-0.5c1.1,0.4,2.7,1.1,2.9,2.5c0.1,1.3-1.3,2-2.2,2.5c-4.8,1.8-10.3,1.9-15.3,0.6
	c-1.4-0.4-3.4-1-3.6-2.8c1-2.3,3.5-2.8,5.7-3.4c-1.1-0.7-2.2-1.3-3.3-2.1C25.5,35.7,24.5,36.2,23.4,36.6 M32.4,46.8
	c-0.2,3.6-0.2,7-0.5,10.6c1.4,0.1,3,0.3,4.6,0L36,47.3l-0.1-0.5C34.7,46.9,33.6,46.9,32.4,46.8"/>
<path id="path13265" class="st0" d="M45.7,67.5c-1.3,0-2.4,0.9-2.4,2.4c0,1.5,1.1,2.4,2.4,2.4c1.3,0,2.4-0.9,2.4-2.4
	C48.1,68.3,46.9,67.5,45.7,67.5 M45.7,71.7L45.7,71.7c-0.9,0-1.7-0.7-1.7-1.8c0-1.1,0.8-1.8,1.7-1.8c0.9,0,1.7,0.7,1.7,1.8
	C47.4,70.9,46.6,71.7,45.7,71.7 M46.8,69.3c0-0.6-0.4-0.8-1.1-0.8h-1v2.6h0.5V70h0.3l0.6,1.1h0.7L46.1,70
	C46.5,70,46.8,69.8,46.8,69.3 M45.8,69.6h-0.5V69h0.4c0.2,0,0.5,0,0.5,0.3C46.2,69.6,46,69.6,45.8,69.6"/>
</svg>
