<?xml version="1.0" encoding="utf-8"?>
<!-- Generator: Adobe Illustrator 23.0.0, SVG Export Plug-In . SVG Version: 6.00 Build 0)  -->
<!DOCTYPE svg PUBLIC "-//W3C//DTD SVG 1.1//EN" "http://www.w3.org/Graphics/SVG/1.1/DTD/svg11.dtd" [
	<!ENTITY ns_extend "http://ns.adobe.com/Extensibility/1.0/">
	<!ENTITY ns_ai "http://ns.adobe.com/AdobeIllustrator/10.0/">
	<!ENTITY ns_graphs "http://ns.adobe.com/Graphs/1.0/">
	<!ENTITY ns_vars "http://ns.adobe.com/Variables/1.0/">
	<!ENTITY ns_imrep "http://ns.adobe.com/ImageReplacement/1.0/">
	<!ENTITY ns_sfw "http://ns.adobe.com/SaveForWeb/1.0/">
	<!ENTITY ns_custom "http://ns.adobe.com/GenericCustomNamespace/1.0/">
	<!ENTITY ns_adobe_xpath "http://ns.adobe.com/XPath/1.0/">
]>
<svg version="1.1" id="Layer_1" xmlns:x="&ns_extend;" xmlns:i="&ns_ai;" xmlns:graph="&ns_graphs;"
	 xmlns="http://www.w3.org/2000/svg" xmlns:xlink="http://www.w3.org/1999/xlink" x="0px" y="0px" viewBox="0 0 510.2 74.3"
	 style="enable-background:new 0 0 510.2 74.3;" xml:space="preserve">
<metadata>
	<sfw  xmlns="&ns_sfw;">
		<slices></slices>
		<sliceSourceBounds  bottomLeftOrigin="true" height="74.3" width="510.2" x="42.5" y="642.9"></sliceSourceBounds>
	</sfw>
</metadata>
<polygon points="0,1.8 11.6,1.8 11.6,18.8 26,1.8 39.7,1.8 23.9,19.8 40.3,43.6 26.3,43.6 15.8,28.1 11.6,32.8 11.6,43.6 0,43.6 "/>
<path d="M69.5,27.2l-4.7-11.9l-4.7,11.9H69.5z M59.4,1.5h11.2l17.8,42.1H75.9l-3-7.5H56.8l-3,7.5H41.6L59.4,1.5z"/>
<path d="M107.7,44.4c-3,0-5.7-0.4-8.1-1.1c-2.4-0.8-4.4-1.9-6.1-3.5c-1.7-1.6-3-3.6-3.9-6c-0.9-2.4-1.3-5.2-1.3-8.5V1.8h11.8V25
	c0,3,0.7,5.3,2.1,6.7c1.4,1.5,3.2,2.2,5.6,2.2c2.3,0,4.2-0.7,5.6-2.1c1.4-1.4,2.1-3.6,2.1-6.5V1.8h11.8V25c0,3.4-0.5,6.3-1.4,8.8
	c-0.9,2.5-2.3,4.5-3.9,6s-3.7,2.7-6.2,3.5C113.4,44,110.7,44.4,107.7,44.4"/>
<path d="M149.2,44.3c-3.7,0-7.3-0.6-10.7-1.7c-3.4-1.2-6.3-2.9-8.9-5.2l6.5-7.7c4.2,3.3,8.7,5,13.6,5c1.6,0,2.7-0.2,3.6-0.7
	c0.8-0.5,1.2-1.2,1.2-2.1v-0.1c0-0.4-0.1-0.8-0.3-1.2c-0.2-0.3-0.6-0.7-1.1-1c-0.5-0.3-1.3-0.6-2.1-0.9c-0.9-0.3-2.1-0.6-3.5-0.9
	c-2.2-0.5-4.3-1.1-6.2-1.7c-1.9-0.6-3.6-1.4-5-2.4c-1.4-1-2.5-2.2-3.3-3.6c-0.8-1.5-1.2-3.3-1.2-5.4v-0.1c0-1.9,0.4-3.7,1.1-5.4
	s1.8-3,3.2-4.2c1.4-1.2,3.1-2.1,5.1-2.8c2-0.7,4.2-1,6.8-1c3.6,0,6.8,0.5,9.6,1.4c2.8,0.9,5.3,2.3,7.6,4.2l-5.8,8.2
	c-1.9-1.4-3.9-2.4-5.9-3.1c-2-0.7-4-1-5.8-1c-1.4,0-2.4,0.3-3.1,0.8c-0.7,0.5-1,1.2-1,1.9v0.1c0,0.5,0.1,0.9,0.3,1.3
	c0.2,0.4,0.6,0.7,1.1,1s1.3,0.6,2.2,0.9c0.9,0.3,2.1,0.6,3.6,0.9c2.4,0.5,4.6,1.1,6.5,1.8c1.9,0.7,3.6,1.5,4.9,2.5
	c1.4,1,2.4,2.2,3.1,3.6c0.7,1.4,1.1,3.1,1.1,5v0.1c0,2.1-0.4,4.1-1.2,5.7c-0.8,1.7-2,3.1-3.4,4.3s-3.2,2.1-5.3,2.7
	C154.1,44,151.8,44.3,149.2,44.3"/>
<polygon points="181,11.9 168.4,11.9 168.4,1.8 205.1,1.8 205.1,11.9 192.6,11.9 192.6,43.6 181,43.6 "/>
<path d="M237.1,33.3c3.5,0,6.3-0.9,8.4-2.7c2.1-1.8,3.2-4.4,3.2-7.8v-0.1c0-3.3-1.1-5.9-3.2-7.8c-2.1-1.9-4.9-2.8-8.4-2.8h-4.7v21.3
	H237.1z M220.8,1.8h16.1c3.7,0,7.1,0.5,10,1.5c2.9,1,5.4,2.4,7.4,4.3c2,1.8,3.5,4,4.6,6.5c1.1,2.5,1.6,5.3,1.6,8.3v0.1
	c0,3-0.5,5.8-1.6,8.4c-1.1,2.6-2.6,4.8-4.7,6.7c-2,1.9-4.5,3.3-7.5,4.4c-3,1.1-6.3,1.6-10.1,1.6h-15.9V1.8z"/>
<path d="M263.6,11.3H275v32.3h-11.4V11.3z M263.4,0h11.9v8.4h-11.9V0z"/>
<path d="M292.8,44.3c-2.7,0-5.4-0.4-8-1.2c-2.6-0.8-5-2-7.3-3.6l4.2-6.9c1.9,1.2,3.8,2.2,5.7,2.8c1.9,0.6,3.7,0.9,5.4,0.9
	c1.9,0,2.9-0.6,2.9-1.7v-0.1c0-0.6-0.4-1.1-1.3-1.5c-0.9-0.4-2.2-0.8-3.9-1.3c-1.6-0.4-3.1-0.9-4.5-1.4c-1.4-0.5-2.6-1.2-3.6-2
	c-1-0.8-1.9-1.7-2.4-2.8c-0.6-1.1-0.9-2.5-0.9-4.1v-0.1c0-1.7,0.3-3.2,1-4.6c0.7-1.3,1.6-2.4,2.7-3.3c1.2-0.9,2.5-1.6,4.1-2.1
	c1.6-0.5,3.3-0.7,5.2-0.7c2.4,0,4.7,0.3,7,1s4.4,1.6,6.3,2.8l-3.9,7.2c-1.7-0.9-3.4-1.6-5.1-2.2c-1.7-0.5-3.2-0.8-4.5-0.8
	c-0.9,0-1.5,0.1-2,0.4c-0.4,0.3-0.7,0.7-0.7,1.1v0.1c0,0.6,0.4,1.1,1.3,1.5c0.9,0.4,2.2,0.8,3.9,1.3c1.6,0.4,3.1,0.9,4.5,1.5
	c1.4,0.5,2.6,1.2,3.6,2c1,0.8,1.9,1.7,2.4,2.8c0.6,1.1,0.9,2.4,0.9,4v0.1c0,1.8-0.3,3.4-1,4.7c-0.6,1.3-1.5,2.5-2.7,3.4
	c-1.2,0.9-2.5,1.6-4.2,2.1C296.5,44.1,294.7,44.3,292.8,44.3"/>
<path d="M325.8,44.4c-2.4,0-4.7-0.4-6.8-1.3c-2.1-0.9-3.9-2.1-5.3-3.6c-1.5-1.5-2.7-3.3-3.5-5.3c-0.9-2.1-1.3-4.2-1.3-6.5v-0.1
	c0-2.3,0.4-4.4,1.3-6.5c0.9-2.1,2-3.8,3.6-5.4c1.5-1.5,3.3-2.7,5.5-3.6c2.1-0.9,4.5-1.3,7-1.3c3.3,0,6.1,0.7,8.4,2
	c2.2,1.3,4,3.1,5.4,5.3l-7.7,5.7c-0.8-1.1-1.7-1.9-2.6-2.5c-0.9-0.6-2.1-0.9-3.5-0.9c-0.9,0-1.8,0.2-2.5,0.6c-0.8,0.4-1.4,0.9-2,1.6
	c-0.6,0.7-1,1.4-1.3,2.3c-0.3,0.9-0.5,1.8-0.5,2.8v0.1c0,1,0.2,2,0.5,2.9c0.3,0.9,0.8,1.7,1.3,2.3c0.6,0.7,1.2,1.2,2,1.6
	c0.8,0.4,1.7,0.6,2.6,0.6c1.4,0,2.5-0.3,3.4-0.9c0.9-0.6,1.9-1.4,2.8-2.4l7.6,5.5c-1.5,2.2-3.4,4-5.7,5.4
	C332.3,43.7,329.3,44.4,325.8,44.4"/>
<path d="M359.3,34.7c1,0,2-0.2,2.8-0.6c0.8-0.4,1.5-0.9,2.1-1.5c0.6-0.7,1-1.4,1.3-2.3c0.3-0.9,0.5-1.8,0.5-2.7v-0.1
	c0-1-0.2-1.9-0.5-2.8c-0.3-0.9-0.8-1.6-1.4-2.3c-0.6-0.7-1.3-1.2-2.2-1.6c-0.8-0.4-1.8-0.6-2.7-0.6c-1,0-2,0.2-2.8,0.6
	c-0.8,0.4-1.5,0.9-2.1,1.5c-0.6,0.7-1,1.4-1.3,2.3c-0.3,0.9-0.5,1.8-0.5,2.7v0.1c0,1,0.2,1.9,0.5,2.8c0.3,0.9,0.8,1.6,1.4,2.3
	c0.6,0.7,1.3,1.2,2.2,1.6C357.4,34.5,358.3,34.7,359.3,34.7 M359.2,44.4c-2.6,0-5-0.4-7.1-1.3c-2.2-0.9-4.1-2.1-5.6-3.6
	c-1.6-1.5-2.8-3.3-3.7-5.3c-0.9-2-1.3-4.2-1.3-6.5v-0.1c0-2.3,0.4-4.5,1.3-6.5c0.9-2.1,2.1-3.8,3.7-5.4c1.6-1.5,3.5-2.7,5.7-3.6
	c2.2-0.9,4.6-1.3,7.2-1.3c2.6,0,5,0.4,7.1,1.3c2.2,0.9,4.1,2.1,5.6,3.6c1.6,1.5,2.8,3.3,3.7,5.3c0.9,2,1.3,4.2,1.3,6.5v0.1
	c0,2.3-0.4,4.5-1.3,6.5c-0.9,2.1-2.1,3.8-3.7,5.4c-1.6,1.5-3.5,2.7-5.7,3.6C364.2,43.9,361.8,44.4,359.2,44.4"/>
<polygon points="377.5,11.3 389.4,11.3 395.6,30.2 401.9,11.3 413.6,11.3 400.7,43.9 390.4,43.9 "/>
<path d="M436,24.8c-0.2-1.8-0.8-3.2-1.8-4.3c-1-1.1-2.3-1.6-3.8-1.6c-1.5,0-2.7,0.5-3.7,1.6c-1,1.1-1.6,2.5-1.9,4.3H436z
	 M431.3,44.4c-2.5,0-4.9-0.4-7-1.2c-2.1-0.8-3.9-2-5.5-3.4c-1.5-1.5-2.7-3.2-3.6-5.3c-0.9-2.1-1.3-4.4-1.3-6.9v-0.1
	c0-2.3,0.4-4.5,1.2-6.6c0.8-2.1,1.9-3.8,3.4-5.4c1.5-1.5,3.2-2.7,5.2-3.6c2-0.9,4.2-1.3,6.6-1.3c2.8,0,5.2,0.5,7.3,1.4
	c2.1,1,3.7,2.2,5.1,3.9c1.3,1.6,2.3,3.5,3,5.6c0.7,2.1,1,4.4,1,6.8v1.1c0,0.4,0,0.8-0.1,1.2h-21.6c0.4,1.8,1.3,3.1,2.5,4
	c1.2,0.9,2.7,1.3,4.5,1.3c1.4,0,2.6-0.3,3.7-0.8c1.1-0.5,2.3-1.4,3.4-2.5l6.3,5.2c-1.6,2-3.5,3.6-5.8,4.8
	C437.3,43.8,434.5,44.4,431.3,44.4"/>
<path d="M450.1,11.3h11.4v6.5c0.9-2.2,2.2-3.9,3.8-5.3c1.6-1.3,3.7-1.9,6.5-1.8v12h-1c-3,0-5.3,0.9-6.9,2.6
	c-1.6,1.8-2.4,4.5-2.4,8.2v10h-11.4V11.3z"/>
<path d="M486.1,53.4c-2,0-3.9-0.3-5.6-0.8c-1.7-0.5-3.3-1.2-4.8-2l3.5-7.9c0.9,0.6,1.8,1,2.7,1.3c0.9,0.3,1.6,0.4,2.3,0.4
	c0.6,0,1-0.1,1.5-0.3c0.4-0.2,0.8-0.5,1.2-1l-12.7-31.8H486l6.5,19.5l6.1-19.5h11.7l-11.8,31.5c-0.7,1.9-1.5,3.5-2.2,4.8
	c-0.8,1.3-1.6,2.4-2.6,3.3c-1,0.8-2.1,1.5-3.3,1.9C489.1,53.2,487.7,53.4,486.1,53.4"/>
<g>
	<path d="M90.3,57.1v2.5h-1.9v5.7c0,0.5,0,0.7,0.1,0.8c0.1,0.1,0.1,0.2,0.3,0.3c0.1,0.1,0.4,0.1,0.8,0.1h0.7v2.3h-7.2v-2.3h0.6
		c0.5,0,0.8,0,0.9-0.1s0.2-0.1,0.2-0.3c0.1-0.1,0.1-0.4,0.1-0.9v-5.7h-1.7v-2.5h1.7v-1.2c0-0.9,0.2-1.6,0.5-2.1
		c0.4-0.6,0.9-1.2,1.7-1.6s1.8-0.6,2.9-0.6c1.2,0,2.1,0.2,2.8,0.7s1,1,1,1.6c0,0.5-0.2,0.9-0.5,1.2s-0.7,0.5-1.2,0.5
		c-0.2,0-0.4,0-0.6-0.1s-0.4-0.1-0.5-0.3c-0.1-0.1-0.3-0.3-0.6-0.6c-0.3-0.3-0.4-0.5-0.5-0.5c-0.1-0.1-0.2-0.1-0.3-0.1
		c-0.3,0-0.5,0.1-0.6,0.4s-0.2,0.7-0.2,1.5v1.2H90.3z"/>
	<path d="M97.2,56.9v1.7c0.6-0.7,1.2-1.1,1.6-1.3s0.9-0.4,1.3-0.4c0.4,0,0.7,0.1,1,0.3s0.5,0.4,0.7,0.8c0.2,0.3,0.3,0.7,0.3,1.1
		c0,0.5-0.2,0.9-0.5,1.3s-0.8,0.6-1.4,0.6c-0.2,0-0.3,0-0.4,0s-0.4-0.1-0.8-0.2c-0.2-0.1-0.4-0.1-0.5-0.1c-0.2,0-0.5,0.1-1,0.4v4.6
		c0,0.4,0,0.6,0.1,0.8s0.2,0.2,0.3,0.3s0.4,0.1,0.9,0.1h0.5v2.3h-7.2v-2.3h0.6c0.4,0,0.7,0,0.8-0.1c0.1,0,0.2-0.1,0.2-0.2
		c0.1-0.1,0.1-0.4,0.1-0.8v-5.4h-1.7v-2.3c1.3-0.1,2.6-0.4,4-1H97.2z"/>
	<path d="M109.5,56.9c1.3,0,2.5,0.3,3.5,0.8s1.8,1.2,2.3,2.1s0.8,2,0.8,3.2c0,1.8-0.6,3.3-1.8,4.5s-2.8,1.7-4.8,1.7
		c-2,0-3.6-0.6-4.8-1.7c-1.2-1.1-1.7-2.6-1.7-4.4c0-1.2,0.3-2.3,0.8-3.2s1.3-1.6,2.3-2.1S108.3,56.9,109.5,56.9z M109.6,59.4
		c-0.4,0-0.9,0.1-1.3,0.4s-0.7,0.7-0.9,1.2s-0.3,1.2-0.3,2c0,0.8,0.1,1.5,0.3,2s0.5,0.9,0.9,1.2s0.8,0.4,1.2,0.4
		c0.7,0,1.3-0.3,1.8-0.9s0.7-1.5,0.7-2.7c0-1.2-0.2-2.1-0.7-2.7S110.3,59.4,109.6,59.4z"/>
	<path d="M123.3,56.9v1.6c0.7-0.5,1.4-0.9,2.1-1.2s1.4-0.4,2.1-0.4c0.5,0,0.9,0.1,1.3,0.2s0.8,0.3,1.1,0.5c0.3,0.2,0.5,0.5,0.8,0.9
		c0.8-0.6,1.5-1,2.2-1.2s1.4-0.4,2.1-0.4c0.6,0,1.2,0.1,1.7,0.3s0.9,0.5,1.2,0.9s0.5,0.8,0.6,1.3c0.1,0.3,0.1,0.7,0.1,1.2v4.9
		c0,0.4,0,0.7,0.1,0.8s0.2,0.2,0.3,0.3c0.1,0,0.4,0.1,0.9,0.1h0.5v2.3h-6.8v-2.3c0.5,0,0.8,0,1-0.1c0.1-0.1,0.2-0.1,0.3-0.2
		c0.1-0.1,0.1-0.4,0.1-0.7v-4.3c0-0.5,0-0.8-0.1-1c-0.1-0.2-0.2-0.3-0.4-0.4c-0.2-0.1-0.4-0.2-0.7-0.2c-0.3,0-0.6,0.1-1,0.2
		c-0.4,0.1-0.9,0.4-1.6,0.9v4.6c0,0.5,0,0.7,0.1,0.9c0.1,0.1,0.2,0.2,0.3,0.3c0.1,0,0.4,0.1,0.9,0.1v2.3H126v-2.3c0.5,0,0.9,0,1-0.1
		s0.2-0.1,0.3-0.3c0.1-0.1,0.1-0.4,0.1-0.9v-4c0-0.6-0.1-1-0.2-1.2c-0.2-0.3-0.5-0.5-0.9-0.5c-0.2,0-0.5,0-0.7,0.1
		c-0.2,0.1-0.5,0.1-0.7,0.3c-0.1,0.1-0.4,0.3-1,0.6l-0.3,0.2v4.6c0,0.4,0,0.7,0.1,0.8c0,0.1,0.1,0.2,0.3,0.3
		c0.1,0.1,0.4,0.1,0.7,0.1h0.3v2.3h-6.8v-2.3h0.5c0.5,0,0.8,0,0.9-0.1c0.1-0.1,0.2-0.1,0.3-0.3c0.1-0.1,0.1-0.4,0.1-0.8v-5.3h-1.7
		v-2.3c1.4-0.1,2.8-0.5,4-1H123.3z"/>
	<path d="M160.8,64.4l1.7,1.5c-0.9,1.1-1.9,1.9-2.9,2.4s-2.1,0.8-3.2,0.8c-1.8,0-3.3-0.6-4.5-1.8s-1.8-2.6-1.8-4.3
		c0-1.1,0.3-2.2,0.8-3.2s1.3-1.7,2.3-2.2s2.2-0.8,3.5-0.8c1.6,0,2.9,0.4,3.9,1.1s1.5,1.5,1.5,2.4c0,0.4-0.1,0.7-0.2,0.9
		s-0.4,0.5-0.7,0.7s-0.7,0.3-1,0.3c-0.3,0-0.6-0.1-0.8-0.2s-0.4-0.3-0.6-0.4c-0.1-0.1-0.2-0.3-0.4-0.7c-0.3-0.5-0.5-0.8-0.6-1
		s-0.3-0.3-0.5-0.4s-0.4-0.1-0.7-0.1c-0.4,0-0.8,0.1-1.2,0.4s-0.7,0.7-0.9,1.2s-0.4,1.1-0.4,1.8c0,0.7,0.1,1.4,0.4,1.9
		s0.7,1,1.1,1.3s1,0.4,1.6,0.4c0.5,0,1.1-0.1,1.7-0.4S160.1,65.1,160.8,64.4z"/>
	<path d="M163.7,57.1l5.5-0.1v7.6c0,0.5,0,0.9,0.1,1.1s0.2,0.3,0.4,0.4s0.4,0.2,0.7,0.2c0.4,0,0.8-0.1,1.2-0.3
		c0.2-0.1,0.6-0.4,1.4-0.8v-4.6c0-0.4,0-0.7-0.1-0.8c-0.1-0.1-0.2-0.3-0.3-0.3c-0.1-0.1-0.3-0.1-0.7-0.1h-0.7v-2.3l5.5-0.1v8.4
		c0,0.4,0,0.7,0.1,0.8s0.1,0.2,0.2,0.2s0.4,0.1,0.8,0.1h0.6v2.3l-5.1,0.1v-1.4c-0.7,0.5-1.4,0.9-2.1,1.1s-1.4,0.4-2.1,0.4
		c-0.6,0-1.1-0.1-1.6-0.3s-0.9-0.4-1.2-0.7s-0.6-0.7-0.7-1.1c-0.2-0.4-0.2-0.9-0.2-1.6v-4.8c0-0.4,0-0.7-0.1-0.8s-0.1-0.2-0.3-0.3
		c-0.1-0.1-0.4-0.1-0.8-0.1h-0.6V57.1z"/>
	<path d="M185,56.9v1.7c0.6-0.7,1.2-1.1,1.6-1.3s0.9-0.4,1.3-0.4c0.4,0,0.7,0.1,1,0.3c0.3,0.2,0.5,0.4,0.7,0.8
		c0.2,0.3,0.3,0.7,0.3,1.1c0,0.5-0.2,0.9-0.5,1.3s-0.8,0.6-1.4,0.6c-0.2,0-0.3,0-0.4,0s-0.4-0.1-0.8-0.2c-0.2-0.1-0.4-0.1-0.5-0.1
		c-0.2,0-0.5,0.1-1,0.4v4.6c0,0.4,0,0.6,0.1,0.8s0.2,0.2,0.3,0.3s0.4,0.1,0.9,0.1h0.5v2.3h-7.2v-2.3h0.6c0.4,0,0.7,0,0.8-0.1
		c0.1,0,0.2-0.1,0.2-0.2c0.1-0.1,0.1-0.4,0.1-0.8v-5.4h-1.7v-2.3c1.3-0.1,2.6-0.4,4-1H185z"/>
	<path d="M196.4,56.9v8.7c0,0.4,0,0.7,0.1,0.8s0.1,0.2,0.3,0.2s0.4,0.1,0.8,0.1h0.6v2.3h-7.2v-2.3h0.6c0.4,0,0.7,0,0.8-0.1
		s0.2-0.1,0.3-0.2s0.1-0.3,0.1-0.6v-5.6h-1.7v-2.2c0.6,0,1.2-0.1,1.8-0.2s1.1-0.2,1.5-0.4c0.3-0.1,0.6-0.3,1.1-0.5H196.4z
		 M194.5,51.6c0.6,0,1.1,0.2,1.5,0.6s0.6,0.9,0.6,1.5c0,0.6-0.2,1.1-0.6,1.5s-0.9,0.6-1.5,0.6s-1.1-0.2-1.5-0.6s-0.6-0.9-0.6-1.5
		c0-0.6,0.2-1.1,0.6-1.5S193.9,51.6,194.5,51.6z"/>
	<path d="M206,56.9c1.3,0,2.5,0.3,3.5,0.8s1.8,1.2,2.3,2.1s0.8,2,0.8,3.2c0,1.8-0.6,3.3-1.8,4.5s-2.8,1.7-4.8,1.7
		c-2,0-3.6-0.6-4.8-1.7c-1.2-1.1-1.7-2.6-1.7-4.4c0-1.2,0.3-2.3,0.8-3.2s1.3-1.6,2.3-2.1S204.7,56.9,206,56.9z M206.1,59.4
		c-0.4,0-0.9,0.1-1.3,0.4s-0.7,0.7-0.9,1.2s-0.3,1.2-0.3,2c0,0.8,0.1,1.5,0.3,2s0.5,0.9,0.9,1.2s0.8,0.4,1.2,0.4
		c0.7,0,1.3-0.3,1.8-0.9s0.7-1.5,0.7-2.7c0-1.2-0.2-2.1-0.7-2.7S206.8,59.4,206.1,59.4z"/>
	<path d="M222.3,57.1h1.5l0.9,3.3l-2.2,0.9c-0.4-0.7-1-1.2-1.6-1.6s-1.3-0.6-1.9-0.6c-0.4,0-0.7,0.1-0.9,0.2s-0.3,0.3-0.3,0.5
		c0,0.2,0.1,0.3,0.2,0.5s0.4,0.3,0.9,0.4l3.2,1.1c0.6,0.2,1.1,0.5,1.6,0.8s0.9,0.7,1.2,1.1s0.4,1,0.4,1.6c0,1.1-0.4,1.9-1.2,2.6
		c-1,0.8-2.1,1.2-3.6,1.2c-1.2,0-2.3-0.3-3.2-0.9l-0.3,0.6h-1.6l-1.4-3.8l2.2-0.9c0.6,0.9,1.2,1.5,2.1,2s1.6,0.7,2.2,0.7
		c0.4,0,0.8-0.1,1.1-0.3c0.2-0.2,0.3-0.3,0.3-0.6c0-0.2-0.1-0.4-0.3-0.5s-0.6-0.3-1.1-0.6l-2.5-0.9c-1.4-0.5-2.3-1-2.9-1.6
		s-0.8-1.2-0.8-2c0-1,0.4-1.8,1.2-2.5c0.9-0.8,2-1.1,3.3-1.1c1.2,0,2.2,0.3,3,0.8L222.3,57.1z"/>
	<path d="M232.4,56.9v8.7c0,0.4,0,0.7,0.1,0.8s0.1,0.2,0.3,0.2s0.4,0.1,0.8,0.1h0.6v2.3h-7.2v-2.3h0.6c0.4,0,0.7,0,0.8-0.1
		s0.2-0.1,0.3-0.2s0.1-0.3,0.1-0.6v-5.6h-1.7v-2.2c0.6,0,1.2-0.1,1.8-0.2s1.1-0.2,1.5-0.4c0.3-0.1,0.6-0.3,1.1-0.5H232.4z
		 M230.5,51.6c0.6,0,1.1,0.2,1.5,0.6s0.6,0.9,0.6,1.5c0,0.6-0.2,1.1-0.6,1.5s-0.9,0.6-1.5,0.6s-1.1-0.2-1.5-0.6s-0.6-0.9-0.6-1.5
		c0-0.6,0.2-1.1,0.6-1.5S229.9,51.6,230.5,51.6z"/>
	<path d="M240.8,53.1v4h3.8v2.5h-3.8v4.1c0,0.9,0,1.5,0.1,1.8s0.3,0.5,0.5,0.6c0.4,0.2,0.8,0.3,1.2,0.3c0.8,0,1.6-0.3,2.4-0.8v2.5
		c-0.7,0.3-1.3,0.5-1.8,0.7s-1.1,0.2-1.8,0.2c-0.7,0-1.4-0.1-1.9-0.3s-1-0.4-1.4-0.8s-0.7-0.7-0.8-1.1s-0.2-0.9-0.2-1.7v-5.6h-1.8
		v-2.3c0.6-0.2,1.2-0.5,1.6-0.9s0.8-0.8,1.1-1.4s0.5-1.2,0.6-2H240.8z"/>
	<path d="M245.8,57.1h7.3v2.3h-0.5c-0.4,0-0.7,0-0.8,0.1c-0.1,0.1-0.2,0.1-0.2,0.3c0,0.1,0.1,0.3,0.2,0.7l1.8,4.2l1.8-4.2
		c0.1-0.3,0.2-0.6,0.2-0.7c0-0.1-0.1-0.2-0.2-0.3s-0.4-0.1-0.8-0.1h-0.7v-2.3h6.3v2.3c-0.6,0-0.9,0-1,0.1c-0.1,0-0.2,0.1-0.3,0.2
		c-0.1,0.1-0.2,0.3-0.4,0.7l-5.3,10.9c-0.6,1.1-1.2,1.9-1.8,2.4c-0.7,0.5-1.5,0.7-2.4,0.7c-0.9,0-1.6-0.2-2.2-0.7s-0.8-1-0.8-1.6
		c0-0.5,0.2-0.9,0.5-1.2s0.7-0.5,1.2-0.5c0.3,0,0.6,0.1,0.9,0.2c0.2,0.1,0.4,0.3,0.6,0.5c0.1,0.2,0.2,0.3,0.3,0.3s0.1,0.1,0.2,0.1
		c0.2,0,0.3-0.1,0.5-0.2c0.2-0.2,0.5-0.7,0.8-1.3l0.4-1l-4-8.4c-0.2-0.4-0.3-0.7-0.5-0.8s-0.2-0.2-0.4-0.2s-0.5-0.1-1-0.1V57.1z"/>
	<path d="M274.9,53.1v4h3.8v2.5h-3.8v4.1c0,0.9,0,1.5,0.1,1.8s0.3,0.5,0.5,0.6c0.4,0.2,0.8,0.3,1.2,0.3c0.8,0,1.6-0.3,2.4-0.8v2.5
		c-0.7,0.3-1.3,0.5-1.8,0.7s-1.1,0.2-1.8,0.2c-0.7,0-1.4-0.1-1.9-0.3s-1-0.4-1.4-0.8s-0.7-0.7-0.8-1.1s-0.2-0.9-0.2-1.7v-5.6h-1.8
		v-2.3c0.6-0.2,1.2-0.5,1.6-0.9s0.8-0.8,1.1-1.4s0.5-1.2,0.6-2H274.9z"/>
	<path d="M287.1,56.9c1.3,0,2.5,0.3,3.5,0.8s1.8,1.2,2.3,2.1s0.8,2,0.8,3.2c0,1.8-0.6,3.3-1.8,4.5s-2.8,1.7-4.8,1.7
		c-2,0-3.6-0.6-4.8-1.7c-1.2-1.1-1.7-2.6-1.7-4.4c0-1.2,0.3-2.3,0.8-3.2s1.3-1.6,2.3-2.1S285.9,56.9,287.1,56.9z M287.2,59.4
		c-0.4,0-0.9,0.1-1.3,0.4s-0.7,0.7-0.9,1.2s-0.3,1.2-0.3,2c0,0.8,0.1,1.5,0.3,2s0.5,0.9,0.9,1.2s0.8,0.4,1.2,0.4
		c0.7,0,1.3-0.3,1.8-0.9s0.7-1.5,0.7-2.7c0-1.2-0.2-2.1-0.7-2.7S287.9,59.4,287.2,59.4z"/>
	<path d="M309.2,56.9v8.7c0,0.4,0,0.7,0.1,0.8s0.1,0.2,0.3,0.2s0.4,0.1,0.8,0.1h0.6v2.3h-7.2v-2.3h0.6c0.4,0,0.7,0,0.8-0.1
		s0.2-0.1,0.3-0.2s0.1-0.3,0.1-0.6v-5.6h-1.7v-2.2c0.6,0,1.2-0.1,1.8-0.2s1.1-0.2,1.5-0.4c0.3-0.1,0.6-0.3,1.1-0.5H309.2z
		 M307.3,51.6c0.6,0,1.1,0.2,1.5,0.6s0.6,0.9,0.6,1.5c0,0.6-0.2,1.1-0.6,1.5s-0.9,0.6-1.5,0.6s-1.1-0.2-1.5-0.6s-0.6-0.9-0.6-1.5
		c0-0.6,0.2-1.1,0.6-1.5S306.7,51.6,307.3,51.6z"/>
	<path d="M317.5,56.9v1.6c0.9-0.6,1.6-1,2.3-1.2s1.3-0.3,1.9-0.3c0.8,0,1.4,0.2,2,0.5s1,0.7,1.3,1.2s0.4,1.2,0.4,2v4.9
		c0,0.4,0,0.7,0.1,0.8s0.2,0.2,0.3,0.3c0.1,0,0.4,0.1,0.8,0.1h0.6v2.3h-6.9v-2.3c0.5,0,0.8,0,0.9,0c0.2-0.1,0.3-0.1,0.4-0.3
		c0.1-0.1,0.1-0.4,0.1-0.8v-4.3c0-0.6-0.1-0.9-0.2-1.1c-0.2-0.3-0.5-0.4-0.9-0.4c-0.3,0-0.7,0.1-1.1,0.2c-0.4,0.1-0.9,0.5-1.5,0.9
		v4.6c0,0.5,0.1,0.8,0.2,0.9c0.1,0.1,0.4,0.2,0.8,0.2h0.4v2.3h-6.8v-2.3h0.3c0.5,0,0.9,0,1-0.1s0.2-0.1,0.3-0.2
		c0.1-0.1,0.1-0.3,0.1-0.7v-5.5h-1.7v-2.3c1.4-0.2,2.7-0.5,3.9-1H317.5z"/>
	<path d="M333.8,56.9v1.6c0.9-0.6,1.6-1,2.3-1.2s1.3-0.3,1.9-0.3c0.8,0,1.4,0.2,2,0.5s1,0.7,1.3,1.2s0.4,1.2,0.4,2v4.9
		c0,0.4,0,0.7,0.1,0.8s0.2,0.2,0.3,0.3c0.1,0,0.4,0.1,0.8,0.1h0.6v2.3h-6.9v-2.3c0.5,0,0.8,0,0.9,0c0.2-0.1,0.3-0.1,0.4-0.3
		c0.1-0.1,0.1-0.4,0.1-0.8v-4.3c0-0.6-0.1-0.9-0.2-1.1c-0.2-0.3-0.5-0.4-0.9-0.4c-0.3,0-0.7,0.1-1.1,0.2c-0.4,0.1-0.9,0.5-1.5,0.9
		v4.6c0,0.5,0.1,0.8,0.2,0.9c0.1,0.1,0.4,0.2,0.8,0.2h0.4v2.3h-6.8v-2.3h0.3c0.5,0,0.9,0,1-0.1s0.2-0.1,0.3-0.2
		c0.1-0.1,0.1-0.3,0.1-0.7v-5.5h-1.7v-2.3c1.4-0.2,2.7-0.5,3.9-1H333.8z"/>
	<path d="M351.5,56.9c1.3,0,2.5,0.3,3.5,0.8s1.8,1.2,2.3,2.1s0.8,2,0.8,3.2c0,1.8-0.6,3.3-1.8,4.5s-2.8,1.7-4.8,1.7
		c-2,0-3.6-0.6-4.8-1.7c-1.2-1.1-1.7-2.6-1.7-4.4c0-1.2,0.3-2.3,0.8-3.2s1.3-1.6,2.3-2.1S350.2,56.9,351.5,56.9z M351.5,59.4
		c-0.4,0-0.9,0.1-1.3,0.4s-0.7,0.7-0.9,1.2s-0.3,1.2-0.3,2c0,0.8,0.1,1.5,0.3,2s0.5,0.9,0.9,1.2s0.8,0.4,1.2,0.4
		c0.7,0,1.3-0.3,1.8-0.9s0.7-1.5,0.7-2.7c0-1.2-0.2-2.1-0.7-2.7S352.2,59.4,351.5,59.4z"/>
	<path d="M367.1,57.1h6.2v2.3c-0.5,0-0.8,0-0.9,0c-0.1,0-0.3,0.1-0.4,0.3s-0.3,0.4-0.4,0.7l-3.8,8.4h-3.2l-4-8.7
		c-0.1-0.2-0.2-0.4-0.4-0.5c-0.1-0.1-0.2-0.2-0.4-0.2c-0.1,0-0.4,0-0.9,0v-2.3h7.2v2.3h-0.4c-0.5,0-0.7,0-0.9,0.1
		c-0.1,0.1-0.2,0.2-0.2,0.4c0,0.1,0.1,0.3,0.2,0.6l1.8,4.6l1.9-4.6c0.1-0.3,0.2-0.4,0.2-0.6c0-0.2-0.1-0.3-0.2-0.4
		c-0.1-0.1-0.4-0.1-0.8-0.1h-0.6V57.1z"/>
	<path d="M381.3,61.7v-0.9c0-0.5,0-0.9-0.1-1.1s-0.2-0.4-0.5-0.5s-0.5-0.2-0.8-0.2c-0.3,0-0.5,0-0.7,0.1s-0.4,0.2-0.5,0.3
		s-0.3,0.4-0.4,0.8c-0.2,0.5-0.5,0.8-0.8,1s-0.6,0.3-1,0.3c-0.5,0-0.9-0.2-1.2-0.5s-0.5-0.7-0.5-1.2c0-0.5,0.2-1,0.5-1.4
		c0.4-0.5,1.1-1,2-1.3s1.8-0.5,2.9-0.5s2,0.2,2.8,0.5s1.3,0.8,1.6,1.3s0.5,1.2,0.5,2.2v4.2c0,0.5,0,0.8,0.1,1s0.2,0.3,0.4,0.4
		s0.4,0.2,0.6,0.2s0.5-0.1,0.9-0.2v2.3c-0.7,0.2-1.3,0.3-1.9,0.3c-0.7,0-1.3-0.1-1.8-0.4s-0.9-0.6-1.3-1.1c-0.8,0.5-1.5,0.9-2.1,1.1
		s-1.3,0.3-1.8,0.3c-1.1,0-2-0.3-2.7-0.9s-1-1.4-1-2.3c0-0.5,0.1-1,0.4-1.4s0.6-0.8,1.1-1.1s1.2-0.6,2.2-0.9S379.9,61.9,381.3,61.7z
		 M381.3,63.7c-1,0.1-1.7,0.3-2.2,0.5s-0.7,0.3-0.9,0.6s-0.3,0.5-0.3,0.7c0,0.3,0.1,0.6,0.4,0.8s0.6,0.3,0.9,0.3
		c0.3,0,0.6-0.1,0.9-0.2s0.7-0.3,1.1-0.6V63.7z"/>
	<path d="M393.4,53.1v4h3.8v2.5h-3.8v4.1c0,0.9,0,1.5,0.1,1.8s0.3,0.5,0.5,0.6c0.4,0.2,0.8,0.3,1.2,0.3c0.8,0,1.6-0.3,2.4-0.8v2.5
		c-0.7,0.3-1.3,0.5-1.8,0.7s-1.1,0.2-1.8,0.2c-0.7,0-1.4-0.1-1.9-0.3s-1-0.4-1.4-0.8s-0.7-0.7-0.8-1.1s-0.2-0.9-0.2-1.7v-5.6h-1.8
		v-2.3c0.6-0.2,1.2-0.5,1.6-0.9s0.8-0.8,1.1-1.4s0.5-1.2,0.6-2H393.4z"/>
	<path d="M404.7,56.9v8.7c0,0.4,0,0.7,0.1,0.8s0.1,0.2,0.3,0.2s0.4,0.1,0.8,0.1h0.6v2.3h-7.2v-2.3h0.6c0.4,0,0.7,0,0.8-0.1
		s0.2-0.1,0.3-0.2s0.1-0.3,0.1-0.6v-5.6h-1.7v-2.2c0.6,0,1.2-0.1,1.8-0.2s1.1-0.2,1.5-0.4c0.3-0.1,0.6-0.3,1.1-0.5H404.7z
		 M402.8,51.6c0.6,0,1.1,0.2,1.5,0.6s0.6,0.9,0.6,1.5c0,0.6-0.2,1.1-0.6,1.5s-0.9,0.6-1.5,0.6s-1.1-0.2-1.5-0.6s-0.6-0.9-0.6-1.5
		c0-0.6,0.2-1.1,0.6-1.5S402.2,51.6,402.8,51.6z"/>
	<path d="M414.3,56.9c1.3,0,2.5,0.3,3.5,0.8s1.8,1.2,2.3,2.1s0.8,2,0.8,3.2c0,1.8-0.6,3.3-1.8,4.5s-2.8,1.7-4.8,1.7
		c-2,0-3.6-0.6-4.8-1.7c-1.2-1.1-1.7-2.6-1.7-4.4c0-1.2,0.3-2.3,0.8-3.2s1.3-1.6,2.3-2.1S413.1,56.9,414.3,56.9z M414.4,59.4
		c-0.4,0-0.9,0.1-1.3,0.4s-0.7,0.7-0.9,1.2s-0.3,1.2-0.3,2c0,0.8,0.1,1.5,0.3,2s0.5,0.9,0.9,1.2s0.8,0.4,1.2,0.4
		c0.7,0,1.3-0.3,1.8-0.9s0.7-1.5,0.7-2.7c0-1.2-0.2-2.1-0.7-2.7S415.1,59.4,414.4,59.4z"/>
	<path d="M427.9,56.9v1.6c0.9-0.6,1.6-1,2.3-1.2s1.3-0.3,1.9-0.3c0.8,0,1.4,0.2,2,0.5s1,0.7,1.3,1.2s0.4,1.2,0.4,2v4.9
		c0,0.4,0,0.7,0.1,0.8s0.2,0.2,0.3,0.3c0.1,0,0.4,0.1,0.8,0.1h0.6v2.3h-6.9v-2.3c0.5,0,0.8,0,0.9,0c0.2-0.1,0.3-0.1,0.4-0.3
		c0.1-0.1,0.1-0.4,0.1-0.8v-4.3c0-0.6-0.1-0.9-0.2-1.1c-0.2-0.3-0.5-0.4-0.9-0.4c-0.3,0-0.7,0.1-1.1,0.2c-0.4,0.1-0.9,0.5-1.5,0.9
		v4.6c0,0.5,0.1,0.8,0.2,0.9c0.1,0.1,0.4,0.2,0.8,0.2h0.4v2.3h-6.8v-2.3h0.3c0.5,0,0.9,0,1-0.1s0.2-0.1,0.3-0.2
		c0.1-0.1,0.1-0.3,0.1-0.7v-5.5h-1.7v-2.3c1.4-0.2,2.7-0.5,3.9-1H427.9z"/>
</g>
</svg>
