<?xml version="1.0" encoding="utf-8"?>
<!-- Generator: Adobe Illustrator 23.0.0, SVG Export Plug-In . SVG Version: 6.00 Build 0)  -->
<!DOCTYPE svg PUBLIC "-//W3C//DTD SVG 1.1//EN" "http://www.w3.org/Graphics/SVG/1.1/DTD/svg11.dtd" [
	<!ENTITY ns_extend "http://ns.adobe.com/Extensibility/1.0/">
	<!ENTITY ns_ai "http://ns.adobe.com/AdobeIllustrator/10.0/">
	<!ENTITY ns_graphs "http://ns.adobe.com/Graphs/1.0/">
	<!ENTITY ns_vars "http://ns.adobe.com/Variables/1.0/">
	<!ENTITY ns_imrep "http://ns.adobe.com/ImageReplacement/1.0/">
	<!ENTITY ns_sfw "http://ns.adobe.com/SaveForWeb/1.0/">
	<!ENTITY ns_custom "http://ns.adobe.com/GenericCustomNamespace/1.0/">
	<!ENTITY ns_adobe_xpath "http://ns.adobe.com/XPath/1.0/">
]>
<svg version="1.1" id="Layer_1" xmlns:x="&ns_extend;" xmlns:i="&ns_ai;" xmlns:graph="&ns_graphs;"
	 xmlns="http://www.w3.org/2000/svg" xmlns:xlink="http://www.w3.org/1999/xlink" x="0px" y="0px" viewBox="0 0 569.4 184.3"
	 style="enable-background:new 0 0 569.4 184.3;" xml:space="preserve">
<style type="text/css">
	.st0{fill:#DC3440;}
	.st1{fill:#DE3C48;}
	.st2{fill:#2F3030;}
	.st3{fill:#333434;}
	.st4{fill:#FAD95C;}
</style>
<metadata>
	<x:xmpmeta  xmlns:x="adobe:ns:meta/">
		<rdf:RDF  xmlns:rdf="http://www.w3.org/1999/02/22-rdf-syntax-ns#">
			
				<rdf:Description  rdf:about="" xmlns:dc="http://purl.org/dc/elements/1.1/" xmlns:stDim="http://ns.adobe.com/xap/1.0/sType/Dimensions#" xmlns:xmp="http://ns.adobe.com/xap/1.0/" xmlns:xmpG="http://ns.adobe.com/xap/1.0/g/" xmlns:xmpGImg="http://ns.adobe.com/xap/1.0/g/img/" xmlns:xmpTPg="http://ns.adobe.com/xap/1.0/t/pg/">
				<xmp:CreatorTool>Adobe Illustrator CC 23.0 (Windows)</xmp:CreatorTool>
				<xmp:CreateDate>2021-08-25T17:23:32+03:00</xmp:CreateDate>
				<xmp:Thumbnails>
					<rdf:Alt>
						<rdf:li  rdf:parseType="Resource">
							<xmpGImg:width>256</xmpGImg:width>
							<xmpGImg:height>84</xmpGImg:height>
							<xmpGImg:format>JPEG</xmpGImg:format>
							<xmpGImg:image>/9j/4AAQSkZJRgABAgEASABIAAD/7QAsUGhvdG9zaG9wIDMuMAA4QklNA+0AAAAAABAASAAAAAEA
AQBIAAAAAQAB/+4ADkFkb2JlAGTAAAAAAf/bAIQABgQEBAUEBgUFBgkGBQYJCwgGBggLDAoKCwoK
DBAMDAwMDAwQDA4PEA8ODBMTFBQTExwbGxscHx8fHx8fHx8fHwEHBwcNDA0YEBAYGhURFRofHx8f
Hx8fHx8fHx8fHx8fHx8fHx8fHx8fHx8fHx8fHx8fHx8fHx8fHx8fHx8fHx8f/8AAEQgAVAEAAwER
AAIRAQMRAf/EAaIAAAAHAQEBAQEAAAAAAAAAAAQFAwIGAQAHCAkKCwEAAgIDAQEBAQEAAAAAAAAA
AQACAwQFBgcICQoLEAACAQMDAgQCBgcDBAIGAnMBAgMRBAAFIRIxQVEGE2EicYEUMpGhBxWxQiPB
UtHhMxZi8CRygvElQzRTkqKyY3PCNUQnk6OzNhdUZHTD0uIIJoMJChgZhJRFRqS0VtNVKBry4/PE
1OT0ZXWFlaW1xdXl9WZ2hpamtsbW5vY3R1dnd4eXp7fH1+f3OEhYaHiImKi4yNjo+Ck5SVlpeYmZ
qbnJ2en5KjpKWmp6ipqqusra6voRAAICAQIDBQUEBQYECAMDbQEAAhEDBCESMUEFURNhIgZxgZEy
obHwFMHR4SNCFVJicvEzJDRDghaSUyWiY7LCB3PSNeJEgxdUkwgJChgZJjZFGidkdFU38qOzwygp
0+PzhJSktMTU5PRldYWVpbXF1eX1RlZmdoaWprbG1ub2R1dnd4eXp7fH1+f3OEhYaHiImKi4yNjo
+DlJWWl5iZmpucnZ6fkqOkpaanqKmqq6ytrq+v/aAAwDAQACEQMRAD8AqLzB5nlkSKLUr2SWQhUR
Z5SzMTQAANuTmiGSXeX2iWi00RZhAAf0Qj/+Qjf9rj/p6yf7z+l9rjf4B/tP+wR2hf8AKwP03p/r
fpX0frMPqep9Z4cfUFeVdqU65KHicQ5/a42s/I+DOvCvhly4b5Po3Nw+Uvnnz9r2uQ+cdVih1G6j
iSchI0mkVQABsADQZqc85CZ3fUuxtHhlpMZMIk8P80Pd/L7vJoGmySMXd7WBmZjUkmNSSSc2eP6R
7nzfWgDPMDlxy+9H5NxXYq89/MD82LXQJX03S0S71VdpXbeGE+DUILP/AJPbv4ZiZ9UIbDm9T2L7
Ny1IGTKeHH075fqHm8e1HzJ5s8xXJS5u7m9eStLWPlwp/kxR/D+GazLnJ3kXu8Gg0uljcYxhXU8/
mUOfLHmNV5nTLmnXaJyfuArmKNViJ+ofNtHaGnO3HH5hMND8++btAnVbe9laKM0eyuSZI9uq8W3X
/Y0OZuPUSjyOzi6vsbS6keqIs/xR2Pz6/G3uHkX8wtM81W5RR9W1OFaz2bGtR05xn9pf1fr2mDOJ
jzfO+2OxMmjlf1Yzyl+g+f3sry90jyL87NU1Oz1TTVs7ua2V4HLLDI8YJ59TxIzA1kiCKL3Psnp8
eTHMzjGXqHMA9Hn0Op+cZ09SC71GWPpzSSdhUe4OYglM9S9RPT6SJoxxg+6LbeYPONjIC+o6hbue
nOaZaj5E748cx1KBotJkG0McvhFmHlH85NWtblLfX2+uWTkKbkKFmjr+0eIAcePf9WZGLVkGpbh0
XafstinEyweifd0P6vue1xSxTRJLEweKRQ8bqahlYVBB8CM2QL59KJiSDsQ8k/OzVNTs9U01LO8n
tkaByywyOgJ59SFIzA1kiCKL2/snp8eTHMzjGXqHMA9GVflHd3V35OjmuppJ5TPKDJKxdqAigqxJ
y7SkmG7pvaXFGGrIiBEcI5bJL+d+o6hZWukmzuZbYu8wcwu0daBKV4kVyvWSIAp2Hslghklk44iW
0eYvveWwar5vuFLW95qEyg0LRyTMAfDYnMISmepexnptLHaUcY94i3LrHnG1o8t7qMHgzSzp+JIx
M5jqVjpdJPYRxn4RTXRfzT85aXIvK8N9APtQ3f7yv/PQ/vB/wWThqZx624Wr9ndJmH08B747fZy+
x7B5L/MHSPM8RjjH1XUUHKWyc1NO7RttzX6K5sMOcT97wnavYmXRmz6sZ5S/X3Mpy90zsVYF+cfm
abR/LaWtpM0N9qMnBJI2KusUdGkYEbj9lfpzF1eThjQ5l6X2X7PGfUGUhcID7Ty/Sfg8k8red9a0
3zDY3l1qFzPaRygXMUkrupif4X+FiQSFNR75r8WaQkCS9x2j2Thy4JwjCIkRtQA36PpdWVlDKQys
KgjcEHN0+RkU3ih8s+Tf+Uv0P/toWv8AyeXNHh+se8Ps3an+K5f+Fz/3JfU2bx8ZdirsVfNf5if8
ptrH/MQf1DNNn+svrfYf+J4/6r6D8t/8o7pf/MJB/wAmlzbY/pHufL9f/f5P68vvTHJuIxP8zPNj
eXPLcktu3HULs+hZnupIq0n+wX8aZj6nLwR83d9gdmjVagCX0R3l+r4/dbwby1oF35g1X0eTCIH1
Lu4O5Ck77nqzds57VakYo8R59H0rX62OmxX15RH46B7DpWj6dpVsLexhWJB9ph9pz4u3UnOXzZ55
Dci8JqdVkzS4pm/x0RuVOOk3mLytpmt27LOgjugKQ3aj41Pav8y+xzK02rniO309zn6HtHJp5ek3
HqOn7HkqPq/lnX1eNvR1CwkDKw+yf1VV1P0g51WDMCBOL25GLV4KO8Jj8fEfe+mfLmtQa3olnqsA
ol1GGKVrxcfC61/yWBGb/HPiiC+Ra7SS0+aWKX8J/sPxDyn8+P8AjraX/wAw7/8AE8wdbzD2nsd/
dZP6w+5l35Nf8oTF/wAxE36xmRpPodH7U/44f6oZrcW1vcwtDcRJNC+zRyKHUj3BqMyCAebz8Mko
G4kg+TwH81vKtjoGvxmwT0rO9j9VIR0RweLqtf2eh+nNXqcQjLbkX0z2c7RnqcB495wNX3jo9O/K
HUJrzyTbLKSzWkklurHrxU8lH0B6fRmZpZXB5D2mwDHrJV/EBL8fJhP57SE67psdNltS1f8AWkI/
41zG1v1B6H2Pj+5mf6X6GY/k1/yhMX/MRN+sZk6T6HQ+1P8Ajh/qhI/z6/3k0b/jJP8A8RTKtbyD
sfY36snuj+lF/kV/yjuof8xf/MpMlovpPvaPbD+/h/U/SXpRAYFWFQdiD0IzMeSBYf5r/LHy7rkE
jwwJYajQmO6gUKC3/FiCisD49ffMfLpoy8i73s32g1GnkASZ4+4/oPT7nhkkes+WPMBUk22p6dLU
EdKjcEfzK6n6Qc1m8JeYfR4nFrMH87HMfj4j7C+kfLetw65odnqkQ4i5jDOnXi4PF1+hgRm4xz4o
gvk2v0h0+aWM/wAJ+zp9iZZNxHzp+bXmD9L+cLiONuVrpw+qRU6ckNZT/wAGSPoGafVZOKfufVfZ
rReBpAT9U/Uf0fZ96Xeb/J915cj0pp+VdQtVmkDbcJv92R/7AMuRy4jCvMOV2Z2pHVHJX8E6946H
47va/wAqPMH6Y8n2yyNyurD/AESevWkYHpnfxQjfxrmy0uTih7nz72j0XgauVfTP1D48/tZjmQ6F
8oaBfw6drum6hMGaGzuoZ5VQAsVikV2CgkCtBtvmhhKpA+b7XrcJy4ZwHOUZD5intH/K+PKH/LHq
H/IuH/qtmy/PQ7i8B/oO1X87H85f8Sr2P52eVby9t7OK0vlluZEhQtHCFDSMFFaSnbfDHWQJqi15
vZPU44GZljqIJ5y6f5r0DMt5d81/mJ/ym2sf8xB/UM02f6y+t9h/4nj/AKr6D8t/8o7pf/MJB/ya
XNtj+ke58v1/9/k/ry+9Mcm4jw78+b95PMNhY8qx21r6vHsHmdgf+FjXNZrpeoDyfRfY7CBgnPrK
VfIftKM/LKwSDy79aoPUvJWYt34oeCr9BUn6c4/tWZOSu4NHtBmMs/D0iPv3ZdmsdG7FXYq83/Ni
yjWfT71RSSRXikPiEIZf+JHN72RkJEo9z1ns3lJjOHQUfmzX8iL2SXyzeWrkkW10TH7LIimg/wBk
CfpzrNFL0kebz3thiEdRGQ/ij9xSL8+P+Otpf/MO/wDxPK9bzDsvY7+6yf1h9zLvya/5QmL/AJiJ
v1jMjSfQ6P2p/wAcP9UM3llihjaWV1jiQVd3IVQB3JPTMkl56MTI0BZeAfmv5pste8wRrYP6tnYx
mJZh9l3LVdl/yeg96ZqtVlEpbcg+m+zfZ09NgPGKnM3XcOj1D8ptLmsPJVqZgVe7d7nieyuaJ96q
D9OZuljUHjvaTUDLrJVyjUflz+1gn56/8pFp/wDzCf8AM18xdb9Q9z0nsf8A3E/6/wCgMz/Jr/lC
Yv8AmIm/WMydJ9DoPan/ABw/1Qkf59f7yaN/xkn/AOIplWt5B2Psb9WT3R/Si/yK/wCUd1D/AJi/
+ZSZLRfSfe0e2H9/D+p+kvSszHknYq8a/PbTI4tR0zUkWj3MckMpHcwlSpPvSQ/dmu1sdwXvvY/U
E454z/CQR8f7E9/I2+eXy5eWjGv1a55J7LKgNP8AglOW6I+kh1vtfhEdRGX86P3FmHm/XU0Ly3fa
mSBJDGRAD3lf4Yx/wRFfbMjLPhiS6LszRnU6iGPoTv7uv2Pn78vtDbX/ADhZW8oMkKP9ZvCd6pEe
R5f67UX6c1OCHHMPp3berGm0kpDY1wx95/Vz+D2H84NB/Snk+a4jWtxpjfWk8fTG0o+XA8vozY6u
HFC+54T2Y1ng6oRP05PT8en27fF53+SnmD9H+Z202VqW+qJwHh60dWjP0jkv05h6PJUq73qvazRe
LpvEH1Yz9h5/oL3zNq+Zvk7Q9PTUda0/T3cxpeXMNuzruVEsgQkV8K5oYRuQHe+2avMcWGeQb8MS
fkLevf8AKgtI/wCrrcf8AmbD8iO94b/Rnl/1OPzKI0/8jtKsr+2vF1Od2tpUmVCiUJjYNQ/dhjog
DdtWf2uy5ISgYR9QI5nq9LzNeRfNf5if8ptrH/MQf1DNNn+svrfYf+J4/wCq+g/Lf/KO6X/zCQf8
mlzbY/pHufL9f/f5P68vvTHJuI8K/PezePzRZ3X+67i0VQf8qOR+Q+5lzV60eoHyfR/Y/KDppR6x
n94H7U1/La6jm8rQxL9q2kkjf5lvU/U+cf2pEjLfeHD7exmOpJ/nAH9H6GU5rXTOxV2KvO/zauIy
dNtgQZB6sjDuFPFV++h+7N32PE+o+56r2agfXLpsPvZb+QttInl7ULhhRJbrgnv6ca1P/D512hHp
J83R+2WQHPCPdD7z+xJvz4/462l/8w7/APE8r1vMOf7Hf3WT+sPuY9ajzbpnk221nS9SuYtNaeSK
5gidlWJ+VFeg7P0+fzykccYcQOztMn5XNq5YcsInJwggkcx3fD7kmjufMfmG8g097ye+uJ24wx3F
wSC3YVlbiD4b5Xcpmrt2Esen0sDkEYwiOfDH9QeieUvyVnW5ju/MciekhDCwiPIsR2kcbAey1r45
mYtHvcnle0vauJiY6cGz/Ef0D9fyeuKqqoVQAoFABsABme8OTbxT89f+Ui0//mE/5mvmt1v1D3Po
Psf/AHE/6/6AzP8AJr/lCYv+Yib9YzJ0n0Og9qf8cP8AVCR/n1/vJo3/ABkn/wCIplWt5B2Psb9W
T3R/Si/yK/5R3UP+Yv8A5lJktF9J97R7Yf38P6n6S9KzMeSdiryH8+b2MzaRZA/vEWaaQdwHKqn/
ABBs1+tPIPdex2I1kn09I++/vCY/kTasmi6ldEUWa4WNT4+mlf8AmZk9EPSS4vthkvNCPdG/mf2J
X+fHmCr2OgxNso+t3QHiapED/wAMfuyGuycouX7HaLaec/1R95/QwjyR54m8pzXU9vZR3U1yqpzk
ZlKqpJIFP5jSvyzFw5vD6PRdrdkDWiMZSMRHuZVN+e+pzwyQy6RbPFKpSRC70KsKEH5jLzrSejpY
ex+OJBGSVjyDzW1u5rS8hu7YmOa3kWWFupVkbkv3EZhg0bD12TEJwMJbiQo/F9V6JqsGraRZ6lB/
d3cSygdeJI+Jf9iajN7CXEAXxbV6aWDLLHLnE0+ZvJv/ACl+h/8AbQtf+Ty5pcP1j3h9e7U/xXL/
AMLn/uS+ps3j4y7FXYq+a/zE/wCU21j/AJiD+oZps/1l9b7D/wATx/1X0H5b/wCUd0v/AJhIP+TS
5tsf0j3Pl+v/AL/J/Xl96Y5NxGD/AJueVZdc8t+vaoZL7TWM8SDdmjIpKg96AN9GY2qxcUduYei9
mu0Rp9RwyNQybH39D+j4vG/JXmj9B6g3r1Nhc0W4AFSpH2XA9q7+2c3rtL40dvqHJ77tbs/8xj2+
uPL9T2G3uILmFJ7eRZYZBVJEIKkexGcxKBiaOxeDnCUCYyFEKmRYoPVtWsdKs3u72QRxL0H7Tt2V
B3Jy3Dhlklwxb9Npp5piEBZ/HN41ql/qPmXXuaRs9xcusVrbruQtaIg+/fOr02nGOIhF77T4cekw
UTUYiyfvL6R8paBHoHl6y0tCGeBKzOP2pXPKQ/LkdvbOixY+CID5N2nrTqc8sp6nb3dHl/58f8db
S/8AmHf/AInmFreYex9jv7rJ/WH3Mo/Keytb38vjZ3UYltp5Z45Y26FWNDl2lAOOi6f2kyyx67ji
akBEh5R5x8r3vlbXmteTejX1bG6GxZK/Caj9pTscwcuMwlT2vZfaENZg4uvKQ8/1F7N+W3nZPMmk
encsBq1mAt0vTmOiygf5Xf3+jNjp83GN+bwHb3ZJ0mW4/wB1Ll5eX6vJmGZDonif56/8pDp//MJ/
zNfNbrfqHufQvY/+4n/X/QGZ/k1/yhMX/MRN+sZk6T6HQe1P+OH+qEj/AD6/3k0b/jJP/wARTKtb
yDsfY36snuj+lF/kV/yjuof8xf8AzKTJaL6T72j2w/v4f1P0l6VmY8kluv8AmLSdBsHvdRnESKDw
j2MkjD9lF7nITyCIsuXotDl1M+DGLP2D3vnXzBrOo+avMcl36Rae6dYrW2X4iq14xxjxPj75qMkz
OVvqmi0uPRacRvaIsn7y+gvK2iweW/LNtYyOo+rRmS6m/Z5mryNXwB6e2bbFDgjT5h2jq5avUSmB
9RoDy5B86eYNSufMvmm5u41Ly39wEto+/EkRxJ/wNBmnySM533vqui08dJpoxPKEd/vkXstt+Sfk
5baJbhZ5J1RRNIspAZwPiIFNqnNiNHCngcntZqzImPCI3tsq/wDKlfI/++rj/kcf6YfycGH+ivWd
8f8ASvPvzV/L/T/LS2N5pSyCynLQzCRufGUfEu5/mWv3ZiarAIURyeo9nO2p6vjhlrjjuK7v2fpZ
V+RXmAT6Xd6HK37yzb17cH/fUho4H+q+/wDssv0WSwYum9sNFw5I5hylsfeOXzH3PK/Jv/KX6H/2
0LX/AJPLmDh+se8PZ9qf4rl/4XP/AHJfU2bx8ZdirsVfNf5if8ptrH/MQf1DNNn+svrfYf8AieP+
qpweffOMEMcEOrTpFEoSNARQKooANuwxGeY6sp9jaSRJOONlU/5WJ52/6vFx94/pj48+9j/Iej/1
OL6Uzcvkjyb8w/yhe6nl1by4iiV6vcadsoZupaInYE/y/d4ZgajSXvF7fsT2mEIjFqDsOUv+K/X8
+95fb6j5j8vXLwRyT2E4P7y3kUjfpVo3FPwzU5tNGe0w9jPBp9VEEiMx3j9YTN/zI81NEEE0aMP9
2iJeR++q/hmIOzMPd9rhjsHTA3R+aAtrLzT5qvwsMc+o3BNC25RAfFjRI1+4Zn4NOBtAOTky6bRQ
3MccftP6S9r/AC8/LK18tAX96y3OsupXmv8Adwq3VY69T4t9Hz2+n0whueb59237QS1foh6cX2y9
/wCpnWZTzbxj8+P+Otpf/MO//E812t5h7/2O/usn9Yfcy78mv+UJi/5iJv1jMjSfQ6P2p/xw/wBU
Jx558pW/mbRHtGol5FWSynP7MlOhP8rdG+/tk82ITjXVwOyO05aTMJfwHaQ8v1jo8B0jVNW8reYF
uUUw3lnIY7i3fYMAaPG/sf7c1cJGEr6h9O1OnxazBwneEhYP3EPpDQtbsdb0q31KyblBOteJ+0jD
7SN7qds28JiQsPk2s0k9PlOOfMfi3k/58f8AHW0v/mHf/ieYOt5h7b2O/usn9Yfcy78mv+UJi/5i
Jv1jMjSfQ6P2p/xw/wBUJH+fX+8mjf8AGSf/AIimVa3kHY+xv1ZPdH9LzXRfN3mPRIHt9LvWtoZG
9R0VUNWoBX4lbsMw4ZZR5F63VdmafUSEskeIjbqjpfzJ88SoUbV5gD3QIh+9VByR1E+9x49g6MG/
DH2/rQtnofm/zLdCSK3utQlfrcylitPeWQ8R9+REJzPe3ZdXpdJGiYwA6D9Qew/l9+WVt5dI1C/Z
LrV2FFKiscIPUJUVLHu30D32GDTCG55vCdtdvy1Xoh6cX2y9/l5L/wA3/MH6K8oS28bUudTb6qlD
uIyKyn5cfh/2WHV5OGHvY+zGi8bVCR+nH6vj0+3f4PNvyY8v/pLzV9elWttpaet7GZvhiH0bt9GY
Wjx3O+56z2q1vhabgH1ZDXw6/q+L6AzbPmLsVY/590D9O+VL+xVeVwE9a18fVi+JQP8AWpx+nKs8
OKBDtOxtb+W1MJn6bo+4/q5vA/IHmA6D5rsb12427P6F32HpS/CxP+rs30ZqcGThmC+mdtaL8zpp
QH1VY94/Xy+L6XW0tVIZYUDDcEKKg/dm6oPkRySPUquFg7FXYqpta2zMWaFGY9SVBOCgzGSQ6lr6
naf74j/4Ff6Y0E+LLvLvqdp/viP/AIFf6Y0F8WXeVXC1uxVDX2mabfoI760hu4x0SeNZB9zA5GUQ
eYbsOoyYzcJSifIkfclieRvJqMGXRLKo6VgQj7iCMh4MO4OWe19WRXiz/wBMU5gt4LeJYoI1iiX7
McahVHyA2ywCnAnOUjcjZX4WLsVWSQQyEGSNXI6FgD+vBTKMyORXJHHGvFFCL4KKD8MKDInm3ihT
a2tnYs8SMx6kqCcFBmMkhyJXJHHGvGNQi9aKAB+GFiZE82pIIZCDJGrkdCwB/XgpMZkciuSOONeK
KEXwUUH4YUGRPNqSGKSnqIr06cgD+vGkxkRyKz6naf74j/4Ff6YKDLxZd5cLW1UhlhQEbghRUH7s
aCDkl3lVwsHYqskhhlp6kavTpyANK/PGmUZkci3HDDHX00VK9eIAr92NLKRPMrsWLsVdiql9TtP9
8R/8Cv8ATBQbPFl3lVwtbsVdirsVeTeavz7tfLP5mL5T1OwVNLBgE+reqaxieMOHaPjTirMOXxdN
/bFXrKsrKGUgqRUEbgg4q8//ACo/NKXz4+uBtPWxTSZ0hjIkMhkV+fxEFV4/3fTfFWETf85EecJ9
e1XStF8kzaudLuZbeV7R55mCpI0as6xQvx5cMVZX5N/Mvz5rlrrUmpeS7nR5dOs2uLFLr14luZgC
RCGlhSladq4qm/5TfmQnn7y7NqhtVsrm3uGtp7ZXMgFFV1YMVXZg/h2xVBeY/wA37HRPzL0nyS9l
636SEIkv/V4ejLcMyxp6fBufIhf2h9rFWTed/NEPlbynqevyoJRYQl0iLcQ8jEJGhbenJ2AxVhy/
nTDZ/ldbeeNa076tJfSPFp+mRS8mlYMyp8bKvEERsxNDRfHpirD4P+ciPOumy2d/5p8ovY+XL91W
G8RZkYKw5BlaQcJDx+IL8NR0xQ96hminhSaJg8Uqh43HQqwqCPmMUsf8/wDmTW/Lvl19S0XRptdv
lljjGnwCRnKuaM1I0kb4fliryCH/AJyT88TarJpEPkKeTVoRym05GuGuEUAGrQiDmBRh1HfFWX+c
vzk1TyzoHlbUbnQit5r9RdWE7vA9s6hOSkNHyJq/dRiqZfnF+aVx+X2m6feQ6cmom+meEo8pi48U
5VqFeuKpx+Wnnq387+UbbXo4RbSyPJFdWobn6UsbU48qLWq8WG3Q4qo/mn+YUHkPyo+tNALu4eaO
3tLRnMYkkckmrANTjGrN07UxVDflD+Y03n/y1c6zNYrp7W949mIUkMoISKKTlyKp/v2lKdsVYDYf
85J+ZNUnuo9G/L681RbN/TmezuJZwpqQvL07R+PLiaVxV6D+W/nvzH5rOo/pnypeeWPqfo+h9cMp
9f1efLh6kNv9jgK0r9rt3VYX5k/PfzJP5kvtD8heXH106WzJe3hWWVSykq3FIaUXkCAxb4uwxVlv
5TfmpbefNOu/UtDp+saa6pf2RYsBzrxdCQpoSpBBFVP34qzzFXYq7FXYq7FXYq7FXYq7FXYq+Z/P
vku385fn9regyv6Us2mLJaTb0SeO2jaNiB1Wuze2Ks2/IDz1fz2115C8xAw+YvLtYolkPxSW0Z4c
fcw7LUdV4nxOKpV/zi9EsVz51iVuSx38Sq3iAZhXFWJflr+ZXljyP5/88y688qLfX0i25hjMhrHc
zFq0O32xir3PyL+a/lDzvdXVroUszzWaLLMs0Rj+FjxBBNa74q84/KNf8JfnN5u8mN+7tL2t3YIe
lEPqxKv/ADxnNafy4oeceeYdQ1/W/OX5h2UrBNA1a0gtJRupjRmgVx8mjiP+yxV6T/zkJ5nOteTP
KukaV8U/muaC5hiBqWi4KUU/60k6fdilMvzs/LPUrz8ttG0/y9CbuTy16VLNFq80KRekzKn7Tigb
j3374qgdJ/Pv8v8AzVHD5f8APOjfUJmdFlW7jWayWZdgW5UeL4v5lovdsVe22sNtBawwWqLHbRIq
QIlAiooAULTsB0xVVxV4J5Q/9an8z/8AMG//ACbtsVX/APOU3/TIf8xc/wDzJxQVX/nKhVbTPK6s
AVOosCDuCCgxSpfk67eSvzW80fl5MeFldOb7R1Y7UUc1Vd9y0Djl/qYq1+ZNPPX53eXvJSfvNL0I
fXdWUfZJIErq1OxjWNPm5xVMP+cTv/Jdaj/215v+oW2xV59+SH5p+U/I8vmSLXpJke+uo2g9GIyV
EZkDVodvtDFXv/kP8zvKvnkX36Bkmf8AR/pfWfWjMdPW58KV6/3TYq8R8veZtY/JTzPrena/os13
o2qXPq2+pwgAuqFijIzDg/wvuhYFTih7L+XOtfl15jW98w+VLeGK+un/ANyxESxXQkcl6TgdeRqe
QJB3oeuKWaYq7FXYq7FXYq7FXYq7FXYq7FXhtr/61def9s4f9QseKrvz58o6lo+p2P5peWAY9V0l
0/SqINpIR8CysBQkBf3cnihHZTiqXf8AOJMrTWnmqV6cpLi1dqdKsspOKpZ+Tuo+TrL8wvPx8y3W
nWyPeuLY6lJBGGIuZ+Xp+sRXtWmKvd/Lmp+Rr2WYeW7vTLmZFBuBp0lvIyqT8PP0SSBXpXFXjn/O
Qv17yp538teftMWk4SSzmI2HJFbjU+LxzOP9jihH/lh5Ga8/5x71GyZCbvzBHd3iA7n1B8Fv95gR
vpxSwH8lGvvOX5geWYr5edn5QsHZa1IPpSuYG9mDzx/QmKHuf5o/mc/kOXQ5ptP+taXqVw0F9dhy
ptwvAgqoVuZKlzSo+zilhX/ORWr/AJeal5CFzHdWV5rc0kLaRPbvHJMV5gyHklW9P0uVa7Vp3pir
0v8ALKPUIvy88ux6hX62un24cN9oD0xwDV7hKA4qybFXgnlD/wBan8z/APMG/wDybtsVX/8AOU3/
AEyH/MXP/wAycUFW/wCcpv8AjneVv+2if+IjFLX/ADkNaXXl3zB5W/MjT0Jm0y4W0vQNucdTJGpp
2ZfVQn/KGKq3/ON+l3ept5h/MHU1/wBO1+7kjtye0Sv6knD/ACTIQn+wxVU/5xO/8l1qP/bXm/6h
bbFWC/8AOPlz5Cg1Hzb/AIsl0qLlNbfUv0q1utaNcep6X1j/AGPLj7VxV9BeWrvyLJFet5QfS7h4
1Q3aaU9samjekJTBWlaNx5e+KsV/L784vLXnbTNQi1uO10e7tpWSfS7yZGDQAAhyZViDUNVYcdqb
9RirBfySTTH/ADr83T+WAF8rrbyKnp19Hk08ZT0wKALyWQp249MUPoXFLsVdirsVdirsVdirsVdi
rsVecQf8q7/5XZccPrP+N/qg9SvL6t6Pop0/Zrwpir0DUPqP1C5+v+n9Q9J/rfrU9P0eJ9TnXbjx
rWuKvNvyO/5Vf9X1r/Af1n0fVi+vfWefWj+nw59qcsVYBr//AEK3+ndR/Sf1v9JfWpvrvH69T1/U
b1Kcfh+3XpirNvyX/wCVM/pPUf8AAHr/AFz0E+u+t9Zp6XP4aevt9rwxVPvzm/wH/hFP8bet+ifr
cXpfV6+r9Y4vx40/yOdfbFWS+Uv0L/hbSP0H/wAcf6nB+j61r6Hpj0+Vd+XH7Vd69cVYH+Tn/Kqv
0t5g/wAFev8AXeUf6R+sVpTnJx9Gu3DlXp7Yqyn8y/8AA3+Ern/G3p/oTktefLn6u/D0fT/eep1p
x7V7VxV4F5G/6Fs/xPBz/SvL1V+q/pn0fqXOvwV9DfjX/fvw/wA2KH1MKUFOnamKXYq860X/AJVh
/wAre1b9H+r/AI59Bv0jX1/T9PjFWnL9104dMVUfzo/5Vx/uC/xp9a/v5P0Z9V5f3n7vlz49vs4q
qfnP/wAq7+q6L/jX6z6P1s/o/wCq8v76grz49qYqyD8yv8Hf4L1D/GH/ACj/AO6+t058q+qvp8fS
+Ovqcen6sVV/IH+F/wDB2l/4Vp+gPSP1GnKvHm3Llz+Llz5cq71xVjv5If4B/wAKXf8Agf6z+ifr
8nr/AFuvP6x6MXKnL9nhwxV4vd/9CvfW5vW/S/q+o3qU9SnKprT6cVepfkP/AMqs/wBzn+A/rn/H
r+kvrnL/AIu9Hhy/2dcVYH+bn/QvX+KLj65+kv0x6rfpP9Bel6frV+P1frH7rnX7Xp9+u9cUPWPy
c/5Vv/hc/wCBafVPU/031K/WvWp/u/l8VafZ/Z/lxSzzFXYq7FXYq7FXYq//2Q==
								</xmpGImg:image>
						</rdf:li>
					</rdf:Alt>
				</xmp:Thumbnails>
				<xmpTPg:MaxPageSize  rdf:parseType="Resource">
					<stDim:w>569.447227</stDim:w>
					<stDim:h>184.334826</stDim:h>
					<stDim:unit>Points</stDim:unit>
				</xmpTPg:MaxPageSize>
				<xmpTPg:NPages>1</xmpTPg:NPages>
				<xmpTPg:HasVisibleTransparency>False</xmpTPg:HasVisibleTransparency>
				<xmpTPg:HasVisibleOverprint>False</xmpTPg:HasVisibleOverprint>
				<xmpTPg:PlateNames>
					<rdf:Seq>
						<rdf:li>Cyan</rdf:li>
						<rdf:li>Magenta</rdf:li>
						<rdf:li>Yellow</rdf:li>
						<rdf:li>Black</rdf:li>
					</rdf:Seq>
				</xmpTPg:PlateNames>
				<xmpTPg:SwatchGroups>
					<rdf:Seq>
						<rdf:li  rdf:parseType="Resource">
							<xmpG:groupName>Default Swatch Group</xmpG:groupName>
							<xmpG:groupType>0</xmpG:groupType>
						</rdf:li>
					</rdf:Seq>
				</xmpTPg:SwatchGroups>
				<dc:format>image/svg+xml</dc:format>
			</rdf:Description>
		</rdf:RDF>
	</x:xmpmeta>
	<sfw  xmlns="&ns_sfw;">
		<slices></slices>
		<sliceSourceBounds  bottomLeftOrigin="true" height="184.3" width="569.4" x="22.3" y="302.8"></sliceSourceBounds>
	</sfw>
</metadata>
<path class="st0" d="M179.6,0c3.7,0.3,7.4,0.3,11.1,0C214,1.7,242,23.1,238.8,60.3c-2.4,28.3-27.9,50-55.6,49.1
	c-27.7-0.9-50.8-23.3-52.1-52.2C129.7,27.8,150.6,3.2,179.6,0z M222.8,54.7c0.7-10.5-3.3-18.5-8.3-24.9c-14-18.1-40.1-19.6-56-3.2
	c-8.4,8.7-11.5,19-11,31c1,25,26.3,42.6,49.9,34.5C211.4,87.3,223.6,72.3,222.8,54.7z"/>
<path class="st1" d="M383.3,107V2.1c0,0,28.9-0.4,43.2,0.3c2.3,0.1,4.6,0.8,6.8,1.4c20.2,5.8,32.2,19.3,36.1,39.7
	c2.1,10.9,1.5,22-2.9,32.4c-8,18.8-22.5,29.6-42.8,31C410.4,107.8,383.3,107,383.3,107z M398.2,16.5V93c0,0,14.7,0.4,21.8-0.1
	c14.9-1.1,26.4-7.6,32-22.3c2.2-5.8,2.8-12,2.5-18.2c-0.6-16.6-9.6-28.9-25-33.6C419.4,15.8,398.2,16.5,398.2,16.5z"/>
<path class="st1" d="M297.4,67.6l28.8,39.3h-19.5c0,0-33.9-46.4-34.2-46.3c0,15.3,0,46.3,0,46.3h-15.4V2l30.1,0
	c0,0,9.6,0.2,14.4,1.2c15.3,3.4,24.3,14.6,24.7,30.8c0.4,15.9-7.9,27.7-22.1,31.7C302.1,66.3,297.4,67.6,297.4,67.6z M272.3,56.2
	c0,0,11.2,0.3,16.4-0.3c4.6-0.5,9.2-1.5,13.3-3.9c7.8-4.4,9.5-11.5,8.7-19.7c-0.7-7.1-4.7-11.6-11.3-13.8
	c-8.8-2.9-27.1-2.2-27.1-2.2V56.2z"/>
<path class="st0" d="M472.1,107L513,2.3l15.4-0.2l41,104.7l-16.8,0.4l-11.7-30.7h-40.5L488.5,107H472.1z M521.2,23.5c0,0-0.7,0-1,0
	c-4.8,12.6-14.4,37.9-14.4,37.9h29.4L521.2,23.5z"/>
<polygon class="st0" points="0,2.2 51.3,2.2 51.5,15.9 15.2,15.9 15.2,47.2 51.4,47.2 51.4,61 15.1,61 15.1,106.8 0,107.1 "/>
<polygon class="st1" points="75.1,2.3 90.2,2.1 90.2,92.4 124.4,92.4 124.4,106.9 75.1,106.9 "/>
<path class="st1" d="M361,106.9h-14.7l0.1-104.7c4.9-0.1,9.7-0.1,14.6-0.2C361,37,361,72,361,106.9z"/>
<path class="st2" d="M330.5,133.4H341l14.5,38.4l14.5-38.3l10.3-0.2V183h-6.1v-40.8l-16,40.6l-5.4,0.1c0,0-15.6-40.8-15.8-40.8
	c0,13.6,0,40.7,0,40.7l-6.5,0.1V133.4z"/>
<path class="st3" d="M188,147.9l-8.5,34.9l-6.6,0.4l-15.2-49.6l7.3-0.3c0,0,11.1,36.6,11.3,36.6c3.1-12.2,9.4-36.5,9.4-36.5
	c1.9,0,3.7,0,5.6,0c3.1,12.2,6.1,24.4,9.2,36.5l11.1-36.5l7.5,0L204,183.1h-6.5L188,147.9z"/>
<path class="st2" d="M83.2,144.7c0,12.8-0.1,25.6-0.1,38.5c-2.2,0-4.4-0.1-6.7-0.1v-49.5l7.3-0.2l23.3,35.8
	c0-11.9,0.1-23.9,0.1-35.8c2.6,0,5.2,0,7.7-0.1v49.6c-2.2,0.1-4.5,0.1-6.7,0.2C99.8,170.2,91.5,157.5,83.2,144.7z"/>
<path class="st2" d="M126.4,182.8v-49.4h25.5c0,2.2-0.1,4.3-0.1,6.5c-6,0-12,0-18,0l0,15.1c5.9,0,11.9,0,17.8,0
	c0.1,2.1,0.1,4.2,0.2,6.3h-17.9v14.7c6,0,12.1,0,18.1,0c0,2.3,0.1,4.6,0.1,6.9H126.4z"/>
<path class="st2" d="M417.8,161.4h-17.9V176h17.9l0,7c0,0-1.7,0.2-2.5,0.2c-7.5,0-22.8,0-22.8,0v-49.7h25.2l0,6.3h-17.9l-0.4,15.1
	h18L417.8,161.4z"/>
<path class="st3" d="M222.8,168.9c2,0,5.3,0,5.3,0s1.1,2.6,1.8,3.9c1.6,3.1,4.3,4.7,7.7,4.4c3.3-0.3,6.1-2.5,7-5.5
	c1.1-3.8,0-7.5-2.7-9.4c-2.5-1.7-5.6-2.1-8.4-3.2c-8-2.9-11.4-10-8.7-18c2-6,8.3-9.7,15.1-8.8c9.8,2.9,10.7,12.8,10.7,12.8l-6,0.1
	c0,0-2-6.6-6.7-6.1c-3.6,0-6,1.9-6.8,5.3c-0.7,3.2,0.4,6,3.6,7.4c2.6,1.1,5.4,1.6,8,2.7c8.3,3.2,11.7,11.9,8.2,20.7
	c-3,7.5-11.2,11.1-18.9,8.2C225.9,181.2,222.8,176.4,222.8,168.9z"/>
<path class="st3" d="M454.5,145l-6,0.2c0,0-1.1-6.9-7.7-6.1c-3.3,0.3-5.1,2.3-5.9,5.2c-0.7,3,0,5.6,3,7.2c2.7,1.4,5.7,1.8,8.5,2.9
	c8.3,3.2,11.8,11.8,8.3,20.6c-3,7.7-11.5,11.4-19.3,8.2c-9.6-5.3-8.8-13.7-8.8-13.7l5.9-0.8c0,0,0.8,2.8,1.4,4
	c1.5,3.3,4.5,4.9,8.1,4.5c3.3-0.4,5.9-2.8,6.7-5.9c1-4.1-0.1-7.3-3.2-9.2c-2.4-1.5-5.3-2-7.9-2.9c-7.7-2.8-11.1-9.2-9.1-17
	c1.7-6.6,7.6-10.6,14.7-9.9C453.1,134.2,454.5,145,454.5,145z"/>
<path class="st2" d="M288.7,140.1c-3.1,0-6.2,0-9.4,0.1c0-2.3,0-4.5,0-6.8c8.9,0.1,26.6,0.2,26.6,0.2l-0.1,6.8c0,0-6.5,0-9.8,0v42.6
	h-7.3V140.1z"/>
<polygon class="st3" points="319.3,183.1 312.5,183.1 312.5,133.4 319.3,133.5 "/>
<path class="st4" d="M222.8,54.7c0.8,17.6-11.4,32.6-25.5,37.4c-23.6,8.1-48.9-9.6-49.9-34.5c-0.5-11.9,2.7-22.3,11-31
	c15.9-16.5,42-15,56,3.2C219.5,36.3,223.5,44.2,222.8,54.7z"/>
</svg>
