<?xml version="1.0" encoding="utf-8"?>
<!-- Generator: Adobe Illustrator 23.0.0, SVG Export Plug-In . SVG Version: 6.00 Build 0)  -->
<!DOCTYPE svg PUBLIC "-//W3C//DTD SVG 1.1//EN" "http://www.w3.org/Graphics/SVG/1.1/DTD/svg11.dtd" [
	<!ENTITY ns_extend "http://ns.adobe.com/Extensibility/1.0/">
	<!ENTITY ns_ai "http://ns.adobe.com/AdobeIllustrator/10.0/">
	<!ENTITY ns_graphs "http://ns.adobe.com/Graphs/1.0/">
	<!ENTITY ns_vars "http://ns.adobe.com/Variables/1.0/">
	<!ENTITY ns_imrep "http://ns.adobe.com/ImageReplacement/1.0/">
	<!ENTITY ns_sfw "http://ns.adobe.com/SaveForWeb/1.0/">
	<!ENTITY ns_custom "http://ns.adobe.com/GenericCustomNamespace/1.0/">
	<!ENTITY ns_adobe_xpath "http://ns.adobe.com/XPath/1.0/">
]>
<svg version="1.1" id="layer" xmlns:x="&ns_extend;" xmlns:i="&ns_ai;" xmlns:graph="&ns_graphs;"
	 xmlns="http://www.w3.org/2000/svg" xmlns:xlink="http://www.w3.org/1999/xlink" x="0px" y="0px" viewBox="0 0 252.5 99.3"
	 style="enable-background:new 0 0 252.5 99.3;" xml:space="preserve">
<style type="text/css">
	.st0{fill:#ED1C24;}
</style>
<metadata>
	<sfw  xmlns="&ns_sfw;">
		<slices></slices>
		<sliceSourceBounds  bottomLeftOrigin="true" height="65.1" width="252.5" x="21.6" y="291.3"></sliceSourceBounds>
	</sfw>
</metadata>
<path class="st0" d="M12.5,27.1l0.1,0.1v11.2h0.2c2.1-6.1,8.5-11.5,16.9-11.5c9.9,0,14.4,4.5,14.4,15v21.6c0,5.6,0.2,12.5,1.6,17.6
	H32.9c1.1-4.6,1.3-10.6,1.3-17.2V43.5c0-6-2.5-8.5-9-8.5c-5.6,0-9.8,2.1-12.2,5v24c0,6.6,0.1,12.6,1.3,17.2H1.4
	C2.8,76.1,3,69.2,3,63.6V44.2C3,38.3,1.8,33.3,0,31L12.5,27.1z M77.7,70.2V50.3c-1.2,2.4-5.7,4.8-9.4,6.4c-6.2,2.6-8.2,5-8.2,10.8
	c0,5.5,3,8.3,8.1,8.3C73.3,75.9,76.3,73.5,77.7,70.2z M70.8,26.9c12.2,0,16.9,5.4,16.9,15.7v25.9c0,4.3,1.7,6.2,5.1,6.2
	c1.1,0,2.7-0.4,3.4-1c-0.2,1.1-0.4,2-0.6,2.7c-1.4,3.5-3.7,5.8-8.2,5.8c-6.6,0-9.1-4.8-9.3-10.2h-0.2c-1.9,6.2-6.4,10.3-14.4,10.3
	c-8.6,0-13.7-5.5-13.8-13c0-6.8,5.1-11.4,14.4-14.8c6-2.3,13.6-5,13.6-10.4v-2.5c0-6.9-2.3-10-9.3-10c-4,0-5.6,1.8-6.4,5.9
	c-0.8,4.4-2.4,6.3-5.5,6.3c-2.4,0-4.9-1.7-4.9-4.9C51.6,31.5,61.3,26.9,70.8,26.9z M124.1,76.3c-1.5,3.5-5.3,6-10.9,6
	c-9.4,0-13.9-4.7-13.9-14.8V34.3H93V34l15.9-16.8l0.3,0.1V28h13.7l-1.2,6.3h-12.5v32.6c0,5.7,3.1,7.9,7.8,7.9c3.6,0,5.9-0.6,8-1.6
	C124.7,74.4,124.6,75.1,124.1,76.3 M137.9,27.4v36.9c0,6.9,2.6,11,9.5,11c6.2,0,10.7-3.2,12.7-6.8V42.1c0-4.2-0.4-9.5-1.7-13.4
	l11.6-1.3v36.7c0,6.3,0.4,12.2,1.7,17h-11.2v-11h-0.1c-1.7,6.4-6.9,12.2-16.7,12.2c-11.7,0-15.7-6.9-15.7-17.4V42.1
	c0-4.2-0.5-9.5-1.7-13.4L137.9,27.4z M189.5,39.9c2-8.7,6.5-13.1,13.6-13.1c4,0,7.2,2.1,7.2,6.3c0,3.7-1.8,5.8-5.3,5.8
	c-2,0-3.2-1-4.1-2.1c-1-1.2-2-2.3-3.5-2.3c-4.3,0-7.9,5.7-7.9,12.3v16.8c0,6.5,0.1,12.8,1.3,17.5h-12.7c1.4-5.1,1.6-12,1.6-17.6
	V44.1c0-5.9-1.2-10.9-3-13.2l12.5-3.8l0.1,0.1v12.7L189.5,39.9L189.5,39.9z M219.2,48.3l22.3-1.5c-0.3-9.8-1.9-15.1-9.5-15.1
	C224.6,31.7,220.2,37.7,219.2,48.3z M232.2,82.2c-12.2,0-23.5-8.6-23.5-26.4c0-17.1,9.6-28.9,23.4-28.9c13.8,0,19.9,8,19.9,24.7h-33
	v1.6c0,15.1,7,20.8,17.2,20.8c8.9,0,13.8-4.3,16.1-7.1l0.2,0.6C250.2,75.6,243.9,82.2,232.2,82.2z"/>
</svg>
