<?xml version="1.0" encoding="utf-8"?>
<!-- Generator: Adobe Illustrator 23.0.0, SVG Export Plug-In . SVG Version: 6.00 Build 0)  -->
<!DOCTYPE svg PUBLIC "-//W3C//DTD SVG 1.1//EN" "http://www.w3.org/Graphics/SVG/1.1/DTD/svg11.dtd" [
	<!ENTITY ns_extend "http://ns.adobe.com/Extensibility/1.0/">
	<!ENTITY ns_ai "http://ns.adobe.com/AdobeIllustrator/10.0/">
	<!ENTITY ns_graphs "http://ns.adobe.com/Graphs/1.0/">
	<!ENTITY ns_vars "http://ns.adobe.com/Variables/1.0/">
	<!ENTITY ns_imrep "http://ns.adobe.com/ImageReplacement/1.0/">
	<!ENTITY ns_sfw "http://ns.adobe.com/SaveForWeb/1.0/">
	<!ENTITY ns_custom "http://ns.adobe.com/GenericCustomNamespace/1.0/">
	<!ENTITY ns_adobe_xpath "http://ns.adobe.com/XPath/1.0/">
]>
<svg version="1.1" id="Layer_1" xmlns:x="&ns_extend;" xmlns:i="&ns_ai;" xmlns:graph="&ns_graphs;"
	 xmlns="http://www.w3.org/2000/svg" xmlns:xlink="http://www.w3.org/1999/xlink" x="0px" y="0px" viewBox="0 0 2426.5 854.5"
	 style="enable-background:new 0 0 2426.5 854.5;" xml:space="preserve">
<style type="text/css">
	.st0{fill-rule:evenodd;clip-rule:evenodd;}
</style>
<metadata>
	<sfw  xmlns="&ns_sfw;">
		<slices></slices>
		<sliceSourceBounds  bottomLeftOrigin="true" height="600.8" width="2426.5" x="36.8" y="949.6"></sliceSourceBounds>
	</sfw>
</metadata>
<path class="st0" d="M557,430.7c0,131.5-38.6,203.2-103.1,251c-46.4,34.3-106.2,51.1-176.6,51.1c-68.5,0-134.9-16.5-185.1-58.9
	C39.1,628.9,0,561.3,0,431.5c0-108.4,26.8-176.3,74.8-224.7c57.4-58,136.8-74.8,204.2-74.8c67.6,0,131.8,15.7,187.9,61
	C520.1,236,557,311.3,557,430.7L557,430.7z M457.9,201.1c-40.6-34-85.8-49.4-178.9-49.4c-104.8,0-157.9,23.5-195.1,64.3
	C41.4,262.4,23.6,328,23.6,431.1c0,84.7,11.7,169.3,62.8,220.4c44.5,44.5,98.1,61,191.4,61c86.4,0,139.8-10.5,186-55.9
	c49.6-48.6,69.3-114.7,69.3-225.6C533.2,317.4,507.1,242.4,457.9,201.1L457.9,201.1z"/>
<path class="st0" d="M443.1,310v3.5c0,0,8.4,0.8,13.7,7.6c5.4,6.8,6.8,16.5,0.9,33c-6.6,18.4-51.9,121.4-59.9,137.6
	c-3.7,7.7-6.4,15.8-8.2,24.2c-0.4,1.9-1.5,2-2.1,0c-0.8-2.7-10.3-16.7-15.2-23.6c-4.7-6.6-34.2-41.9-64.3-77.8
	c-1.8-2.2-3.8-4.3-5.9-6.3c-1.4-1.2-1.4-1.4,0.3-2.7c2.7-2.5,3.6-3.8,5.6-6.4c30-38,54.2-69.9,56.4-72.6
	c6.1-7.6,11.3-13.3,14.3-15.2V310h-75.4c0.1-21.9,0.2-40.4,0.5-47.1c1.1-24.4,3.6-34.7,16.3-49c6.4-7.3,12.2-11,12.2-11
	c-0.5-0.8-0.9-1.7-1.3-2.6c-5.8,3-18.3,3.7-31.8,3.7c-13.5,0-57.3-0.9-77-0.9s-32.1,4.5-41.3,12.6c-8.8,7.7-18,25.9-18.8,28.9
	l2.5,1.6c3.2-3.4,10.6-9.7,18.9-12.5c10-3.3,18.8-4.3,31.2-4.3s43.4,0.9,52.6,0.9s16.7-0.6,21.6-1.9c5.1-1.3,7.3-2.2,9.4-3.4
	c3.7-2.2,4.5,0.4,1.5,2.8c-3.9,3.3-7.6,6.8-10.9,10.7c-10.5,12-19.2,25.9-19.2,56.1l0,15.4h-92.5v1.3c0,0,7.7,5.3,17.8,17.5
	c4.1,5,32.6,39.2,65.3,78.9c1.5,1.9,4.9,5.1,6.4,7c1.7,0.9,1.1,2.1,0.1,2.5c-2.2,2.8-3.5,3.7-6.4,7.4
	c-30.8,38.4-59.5,75.7-61.9,79.5c-5.4,8.1-7,10.3-8.4,13.4c-1.3,2.8-2.6,4.5-3.5,0.7c-0.9-3.9-2.2-10.6-9.3-26.5
	c-7.1-15.8-64.6-134.1-69.1-143.3c-6.4-13-4.5-21.8-0.6-27.4c2.7-3.9,7.1-6.4,11.3-7.4V310H45.1v3.5c0,0,4.2,0.9,6.5,3
	c2.7,2.4,6.7,9.4,9.2,13.7c8.6,15,103.7,210.3,107.9,219.6c6.8,14.9,7.6,18.6,7.6,18.6h1.5c0,0,10-15.3,25.3-34.4
	c4.7-5.9,30.1-40.9,60.5-79.8c2.2-2.8,4.6-5.4,6.1-8.6c0.8-1.7,1.9-1.5,1.4,0.6c-0.3,1.4-0.5,10.2-0.5,11.6
	c0.3,55.5,1.2,115.9,1.5,148.2c0.4,39.6-9,51.6-29.1,51.6c-5.6,0-11.1-1.9-13.9-4.2c-3-2.4-4.5-7,2.4-8.7
	c6.7-1.6,12.6-8.8,12.8-19.9c0.1-10.9-8.1-22.2-23-22c-16,0.2-27.3,13-27.3,31.7c0,14.5,11.2,39.8,50.4,39.4
	c46.2-0.5,57.9-38,59.5-55.8c1.3-13.9,1.1-26.3,1.1-48.1c0-14.5-0.6-58.4-1.2-97.3c0-2.6,0-8.2-0.4-11c-0.6-3.1,0.4-3.5,1.6-0.8
	c1.5,3.5,4.2,7.7,5.1,8.7c19.7,24.4,39.3,48.8,58.8,73.3c13.8,17.7,19.1,25.7,19.1,25.7h1.9c0,0,4.8-14.7,10.8-27.1
	c6.2-12.9,87.8-195.8,91-202.7c3.4-7.3,8.5-16.4,12-19.5c2.6-2.3,5.8-4.9,9.4-5.7V310L443.1,310L443.1,310L443.1,310z M335.7,325.3
	c1.1,0,3,0,3.6-0.1c1.8-0.2,2.1,0,0.4,1.6c-1.1,1.1-4.1,4-6,6.1c-0.4,0.5-10.1,12-23.8,29.2c-2.3,2.9-4,5-6,8.4
	c-1.2,2.5-2.1,2.3-1.4-1.1c0.3-2.7,0.4-7.2,0.5-10.8c0-10.8,0.2-22.3,0.3-33.4C303.3,325.3,333.6,325.2,335.7,325.3L335.7,325.3z
	 M269.6,370.7c-1.6-3.4-7.8-11.3-8.6-12.3c-14.3-17-20.3-24.3-22-26.5c-1.3-1.7-2.6-3.4-4.1-5c-1.6-1.5-1.3-2.2,0.6-2
	c1.2,0.2,3.4,0.2,4.7,0.2h30c0.1,10.9,0.2,20.4,0.3,33.4c0,4.7,0,7.8,0.4,11.2C271.5,373.2,270.5,372.7,269.6,370.7L269.6,370.7z
	 M1329.7,647.2c-7.2-7.6-7.1-19.8-7.1-29.2V252.5c0-16.3,2.9-23.3,8.6-29.7c5.4-6.1,12.3-10.8,21.6-12.1v-6.8h-144.1v6.8
	c9.2,1.2,16.3,6.3,21.5,12.1c5.7,6.4,8.6,13.4,8.6,29.7V618c0,9.4,0.2,21.6-7.1,29.2c-6,6.3-15.4,8.9-23.1,10v7h144.1v-7
	C1345.1,656.3,1335.6,653.5,1329.7,647.2L1329.7,647.2z M1690.3,545.6c-1.9,9.8-6.9,26.4-18.4,37.9c-11.5,11.5-21.5,14.3-48.5,14.3
	h-89.1V252.5c0-16.3,2.8-23.3,8.6-29.7c5.2-5.8,15-11.1,27-12.1v-6.8h-149.5v6.8c9.2,1.2,16.3,6.3,21.6,12.1
	c5.7,6.4,8.5,14.2,8.6,29.7V618c0,9.4,0.2,21.6-7.1,29.2c-6,6.3-15.2,9.1-23.1,10v7h268.4l8.5-118L1690.3,545.6L1690.3,545.6z
	 M2009.7,545.5c-1.9,9.8-7.1,28.6-18.6,40.1s-21.5,14.3-48.5,14.3h-107.7V453h85.7c16.3,0,24.5,3.8,30.9,9.5
	c5.8,5.2,11.6,15.3,12.9,24.6h6.6V357.1h-6.6c-1.2,9.2-6.5,18.5-12.3,23.7c-6.4,5.7-13.4,8.6-29.7,8.6h-87.3V266.1h107.6
	c8.5,0,25.3,0,36.8,11.5c11.5,11.5,11.7,22.5,13,30.2l6.7-0.6l-2-103.3H1721v6.8c9.2,1.2,16.3,6.3,21.6,12.1
	c5.7,6.4,8.6,13.4,8.6,29.7V618c0,9.4,0.1,21.6-7.1,29.2c-6,6.3-15.4,9.2-23.1,10v7h287l8.5-118L2009.7,545.5L2009.7,545.5z
	 M2293.4,203.9v6.8c8.6,1.5,17,3.9,21.6,13.4c4.9,9.9,1.2,23-5.4,36c-7.6,15.1-53.6,102.1-61,116c-7.4,13.9-11.1,20.7-12.5,26.4
	c-1.4,5.7-3.4,6-4.8-0.3c-1.4-6.2-6.3-15.6-11.6-25.2c-5.4-9.6-66.6-121.3-70.3-128.5c-5.7-10.8-9.3-21.3-4.6-29.2
	c4.6-7.8,10.3-7.6,16.7-8.6v-6.8h-142.1v6.8c6.3,1.2,10.6,3.3,16.1,7.8c5.5,4.7,9.2,9.3,14.3,18.1c4.8,8.3,120.6,207.8,134,230.9
	V618c0,9.4,0.2,21.6-7.1,29.2c-6,6.3-15.2,9.1-23.1,10v7h144.2v-7c-8.2-0.9-17.1-3.7-23.1-10c-7.2-7.6-7.1-19.8-7.1-29.2V467.7
	l120.6-218.5c6-10.8,15.6-25.4,21.6-30.8c6.4-5.8,12.1-6.8,16.6-7.6v-6.8H2293.4z M720,203.9H573.8v6.8c6.2,0.8,15.4,3.3,24.5,12.9
	c8.2,8.8,11.1,15.5,16.2,26.4C619.5,260.8,772,614,780.5,633.9c8.5,19.9,17.6,39,19.7,44.8l7.5,0c0,0,9.6-19.3,19.3-43.1
	c9.6-23.8,49.4-116.4,53.3-125.9c6.8-16.7,10.4-28.4,11.3-33.5c0.8-4.2,2.1-4.5,2.9,0.1s5.7,20,11,34
	c4.3,11.5,47.6,112.7,54.7,128.7c7.2,16.2,16.5,35,18.4,39.7h7.9c4.8-13.9,11.7-26.9,17.9-42.5c6.2-15.6,142.9-368.7,149.5-385.7
	c6.2-16.2,10.7-24.5,16.1-29.4c6-5.6,13.6-9.3,21.8-10.4v-6.8h-128.3v6.8c5.7,1.1,13.7,2.5,18.7,10c5.1,7.7,1.5,24-2.6,35.3
	c-6.9,19.1-79.1,229.1-79.1,229.1c-3.4,12.6-5.8,22.4-7.1,28.4c-1.3,6-3,6.4-4.3,0.2c-1.1-5.2-3.7-13.1-9.9-29.9
	c0,0-38.1-90.1-40.8-95.3c-1.6-3.1-3.3-6.1-5.1-9.1c-1.1-1.6-1.3-2.2,0.2-4.3c1.3-1.9,3.9-8,5.3-11.3c3-7,50.6-120.8,53.6-128.1
	s7.6-15.1,11.9-18.7c3.9-3.3,7.8-5.5,13.3-6.4v-6.8H915.5v6.8c7,1,12.2,4.1,14.7,9.3c2.3,4.9,2,13.8-1.4,22.3
	c-3.4,8.5-18.1,46.2-19.6,51.9c-1.4,5.7-2.6,8.8-2.8,11.9c-0.3,3.1-2.6,4-3.1,0c-0.6-4-1.1-8.2-3.1-12.8c-2-4.5-18.5-47-20.5-53.5
	c-2.7-8.9-2.6-17.8,1.7-22.5c4.9-5.3,10.6-6,15.3-6.6v-6.8H763.2v6.8c7.4,0.8,12.3,4,16.1,8.3c4.7,5.2,7.2,10,11.4,22.2
	c4.3,12.2,64,149.8,66.7,155.1c2,4,3.2,6.4,4,7.7c1.7,3,1.7,3.5-0.1,6.5c-1.5,2.5-3.8,7.7-7.2,15.3c-2.6,5.8-23.5,54.2-26.9,62.7
	c-3.4,8.5-9,21-10,26c-1,5-2.1,5.3-3.4-0.3c-1.5-6.4-4.2-15-10.5-26.9c-6.2-11.9-93.9-224.9-99-236.2c-5.1-11.3-6.9-24.8-2.6-31.2
	c4.3-6.3,10.8-8.6,18.3-9.2V203.9L720,203.9z"/>
</svg>
